0
SECTION
2
HEADER
9
$ACADVER
1
AC1009
0
ENDSEC
0
SECTION
2
TABLES
0
TABLE
2
LAYER
70
5
0
LAYER
2
ROOM_BOUNDARY
70
0
62
4
6
CONTINUOUS
0
LAYER
2
DOORS_SWING
70
0
62
2
6
CONTINUOUS
0
LAYER
2
EGRESS
70
0
62
6
6
DASHED
0
LAYER
2
FURNITURE
70
0
62
3
6
CONTINUOUS
0
LAYER
2
LABELS
70
0
62
7
6
CONTINUOUS
0
ENDTAB
0
ENDSEC
0
SECTION
2
ENTITIES
0
LINE
8
ROOM_BOUNDARY
10
0.0
20
0.0
30
0.0
11
10200.0
21
0.0
31
0.0
0
LINE
8
ROOM_BOUNDARY
10
10200.0
20
0.0
30
0.0
11
10200.0
21
4200.0
31
0.0
0
LINE
8
ROOM_BOUNDARY
10
10200.0
20
4200.0
30
0.0
11
0.0
21
4200.0
31
0.0
0
LINE
8
ROOM_BOUNDARY
10
0.0
20
4200.0
30
0.0
11
0.0
21
0.0
31
0.0
0
LINE
8
EGRESS
10
1300.0
20
0.0
30
0.0
11
9500.0
21
3400.0
31
0.0
0
LINE
8
FURNITURE
10
700.0
20
925.0
30
0.0
11
1900.0
21
925.0
31
0.0
0
LINE
8
FURNITURE
10
1900.0
20
925.0
30
0.0
11
1900.0
21
1675.0
31
0.0
0
LINE
8
FURNITURE
10
1900.0
20
1675.0
30
0.0
11
700.0
21
1675.0
31
0.0
0
LINE
8
FURNITURE
10
700.0
20
1675.0
30
0.0
11
700.0
21
925.0
31
0.0
0
TEXT
8
LABELS
10
1100.0
20
1300.0
30
0.0
40
120.0
1
P001: NW-DES-009
0
LINE
8
FURNITURE
10
880.0
20
300.0
30
0.0
11
1520.0
21
300.0
31
0.0
0
LINE
8
FURNITURE
10
1520.0
20
300.0
30
0.0
11
1520.0
21
900.0
31
0.0
0
LINE
8
FURNITURE
10
1520.0
20
900.0
30
0.0
11
880.0
21
900.0
31
0.0
0
LINE
8
FURNITURE
10
880.0
20
900.0
30
0.0
11
880.0
21
300.0
31
0.0
0
TEXT
8
LABELS
10
1000.0
20
600.0
30
0.0
40
120.0
1
P002: NW-CHA-012
0
LINE
8
FURNITURE
10
1900.0
20
925.0
30
0.0
11
3100.0
21
925.0
31
0.0
0
LINE
8
FURNITURE
10
3100.0
20
925.0
30
0.0
11
3100.0
21
1675.0
31
0.0
0
LINE
8
FURNITURE
10
3100.0
20
1675.0
30
0.0
11
1900.0
21
1675.0
31
0.0
0
LINE
8
FURNITURE
10
1900.0
20
1675.0
30
0.0
11
1900.0
21
925.0
31
0.0
0
TEXT
8
LABELS
10
2300.0
20
1300.0
30
0.0
40
120.0
1
P003: NW-DES-009
0
LINE
8
FURNITURE
10
2280.0
20
300.0
30
0.0
11
2920.0
21
300.0
31
0.0
0
LINE
8
FURNITURE
10
2920.0
20
300.0
30
0.0
11
2920.0
21
900.0
31
0.0
0
LINE
8
FURNITURE
10
2920.0
20
900.0
30
0.0
11
2280.0
21
900.0
31
0.0
0
LINE
8
FURNITURE
10
2280.0
20
900.0
30
0.0
11
2280.0
21
300.0
31
0.0
0
TEXT
8
LABELS
10
2400.0
20
600.0
30
0.0
40
120.0
1
P004: NW-CHA-012
0
LINE
8
FURNITURE
10
3400.0
20
825.0
30
0.0
11
4600.0
21
825.0
31
0.0
0
LINE
8
FURNITURE
10
4600.0
20
825.0
30
0.0
11
4600.0
21
1575.0
31
0.0
0
LINE
8
FURNITURE
10
4600.0
20
1575.0
30
0.0
11
3400.0
21
1575.0
31
0.0
0
LINE
8
FURNITURE
10
3400.0
20
1575.0
30
0.0
11
3400.0
21
825.0
31
0.0
0
TEXT
8
LABELS
10
3800.0
20
1200.0
30
0.0
40
120.0
1
P005: NW-DES-009
0
LINE
8
FURNITURE
10
3880.0
20
100.0
30
0.0
11
4520.0
21
100.0
31
0.0
0
LINE
8
FURNITURE
10
4520.0
20
100.0
30
0.0
11
4520.0
21
700.0
31
0.0
0
LINE
8
FURNITURE
10
4520.0
20
700.0
30
0.0
11
3880.0
21
700.0
31
0.0
0
LINE
8
FURNITURE
10
3880.0
20
700.0
30
0.0
11
3880.0
21
100.0
31
0.0
0
TEXT
8
LABELS
10
4000.0
20
400.0
30
0.0
40
120.0
1
P006: NW-CHA-012
0
LINE
8
FURNITURE
10
4800.0
20
825.0
30
0.0
11
6000.0
21
825.0
31
0.0
0
LINE
8
FURNITURE
10
6000.0
20
825.0
30
0.0
11
6000.0
21
1575.0
31
0.0
0
LINE
8
FURNITURE
10
6000.0
20
1575.0
30
0.0
11
4800.0
21
1575.0
31
0.0
0
LINE
8
FURNITURE
10
4800.0
20
1575.0
30
0.0
11
4800.0
21
825.0
31
0.0
0
TEXT
8
LABELS
10
5200.0
20
1200.0
30
0.0
40
120.0
1
P007: NW-DES-009
0
LINE
8
FURNITURE
10
5080.0
20
200.0
30
0.0
11
5720.0
21
200.0
31
0.0
0
LINE
8
FURNITURE
10
5720.0
20
200.0
30
0.0
11
5720.0
21
800.0
31
0.0
0
LINE
8
FURNITURE
10
5720.0
20
800.0
30
0.0
11
5080.0
21
800.0
31
0.0
0
LINE
8
FURNITURE
10
5080.0
20
800.0
30
0.0
11
5080.0
21
200.0
31
0.0
0
TEXT
8
LABELS
10
5200.0
20
500.0
30
0.0
40
120.0
1
P008: NW-CHA-012
0
LINE
8
FURNITURE
10
6200.0
20
825.0
30
0.0
11
7400.0
21
825.0
31
0.0
0
LINE
8
FURNITURE
10
7400.0
20
825.0
30
0.0
11
7400.0
21
1575.0
31
0.0
0
LINE
8
FURNITURE
10
7400.0
20
1575.0
30
0.0
11
6200.0
21
1575.0
31
0.0
0
LINE
8
FURNITURE
10
6200.0
20
1575.0
30
0.0
11
6200.0
21
825.0
31
0.0
0
TEXT
8
LABELS
10
6600.0
20
1200.0
30
0.0
40
120.0
1
P009: NW-DES-009
0
LINE
8
FURNITURE
10
6480.0
20
200.0
30
0.0
11
7120.0
21
200.0
31
0.0
0
LINE
8
FURNITURE
10
7120.0
20
200.0
30
0.0
11
7120.0
21
800.0
31
0.0
0
LINE
8
FURNITURE
10
7120.0
20
800.0
30
0.0
11
6480.0
21
800.0
31
0.0
0
LINE
8
FURNITURE
10
6480.0
20
800.0
30
0.0
11
6480.0
21
200.0
31
0.0
0
TEXT
8
LABELS
10
6600.0
20
500.0
30
0.0
40
120.0
1
P010: NW-CHA-012
0
LINE
8
FURNITURE
10
7600.0
20
825.0
30
0.0
11
8800.0
21
825.0
31
0.0
0
LINE
8
FURNITURE
10
8800.0
20
825.0
30
0.0
11
8800.0
21
1575.0
31
0.0
0
LINE
8
FURNITURE
10
8800.0
20
1575.0
30
0.0
11
7600.0
21
1575.0
31
0.0
0
LINE
8
FURNITURE
10
7600.0
20
1575.0
30
0.0
11
7600.0
21
825.0
31
0.0
0
TEXT
8
LABELS
10
8000.0
20
1200.0
30
0.0
40
120.0
1
P011: NW-DES-009
0
LINE
8
FURNITURE
10
7880.0
20
200.0
30
0.0
11
8520.0
21
200.0
31
0.0
0
LINE
8
FURNITURE
10
8520.0
20
200.0
30
0.0
11
8520.0
21
800.0
31
0.0
0
LINE
8
FURNITURE
10
8520.0
20
800.0
30
0.0
11
7880.0
21
800.0
31
0.0
0
LINE
8
FURNITURE
10
7880.0
20
800.0
30
0.0
11
7880.0
21
200.0
31
0.0
0
TEXT
8
LABELS
10
8000.0
20
500.0
30
0.0
40
120.0
1
P012: NW-CHA-012
0
LINE
8
FURNITURE
10
8800.0
20
825.0
30
0.0
11
10000.0
21
825.0
31
0.0
0
LINE
8
FURNITURE
10
10000.0
20
825.0
30
0.0
11
10000.0
21
1575.0
31
0.0
0
LINE
8
FURNITURE
10
10000.0
20
1575.0
30
0.0
11
8800.0
21
1575.0
31
0.0
0
LINE
8
FURNITURE
10
8800.0
20
1575.0
30
0.0
11
8800.0
21
825.0
31
0.0
0
TEXT
8
LABELS
10
9200.0
20
1200.0
30
0.0
40
120.0
1
P013: NW-DES-009
0
LINE
8
FURNITURE
10
9080.0
20
300.0
30
0.0
11
9720.0
21
300.0
31
0.0
0
LINE
8
FURNITURE
10
9720.0
20
300.0
30
0.0
11
9720.0
21
900.0
31
0.0
0
LINE
8
FURNITURE
10
9720.0
20
900.0
30
0.0
11
9080.0
21
900.0
31
0.0
0
LINE
8
FURNITURE
10
9080.0
20
900.0
30
0.0
11
9080.0
21
300.0
31
0.0
0
TEXT
8
LABELS
10
9200.0
20
600.0
30
0.0
40
120.0
1
P014: NW-CHA-012
0
LINE
8
FURNITURE
10
600.0
20
2425.0
30
0.0
11
1800.0
21
2425.0
31
0.0
0
LINE
8
FURNITURE
10
1800.0
20
2425.0
30
0.0
11
1800.0
21
3175.0
31
0.0
0
LINE
8
FURNITURE
10
1800.0
20
3175.0
30
0.0
11
600.0
21
3175.0
31
0.0
0
LINE
8
FURNITURE
10
600.0
20
3175.0
30
0.0
11
600.0
21
2425.0
31
0.0
0
TEXT
8
LABELS
10
1000.0
20
2800.0
30
0.0
40
120.0
1
P015: NW-DES-009
0
LINE
8
FURNITURE
10
880.0
20
1900.0
30
0.0
11
1520.0
21
1900.0
31
0.0
0
LINE
8
FURNITURE
10
1520.0
20
1900.0
30
0.0
11
1520.0
21
2500.0
31
0.0
0
LINE
8
FURNITURE
10
1520.0
20
2500.0
30
0.0
11
880.0
21
2500.0
31
0.0
0
LINE
8
FURNITURE
10
880.0
20
2500.0
30
0.0
11
880.0
21
1900.0
31
0.0
0
TEXT
8
LABELS
10
1000.0
20
2200.0
30
0.0
40
120.0
1
P016: NW-CHA-012
0
LINE
8
FURNITURE
10
2000.0
20
2425.0
30
0.0
11
3200.0
21
2425.0
31
0.0
0
LINE
8
FURNITURE
10
3200.0
20
2425.0
30
0.0
11
3200.0
21
3175.0
31
0.0
0
LINE
8
FURNITURE
10
3200.0
20
3175.0
30
0.0
11
2000.0
21
3175.0
31
0.0
0
LINE
8
FURNITURE
10
2000.0
20
3175.0
30
0.0
11
2000.0
21
2425.0
31
0.0
0
TEXT
8
LABELS
10
2400.0
20
2800.0
30
0.0
40
120.0
1
P017: NW-DES-009
0
LINE
8
FURNITURE
10
2280.0
20
1900.0
30
0.0
11
2920.0
21
1900.0
31
0.0
0
LINE
8
FURNITURE
10
2920.0
20
1900.0
30
0.0
11
2920.0
21
2500.0
31
0.0
0
LINE
8
FURNITURE
10
2920.0
20
2500.0
30
0.0
11
2280.0
21
2500.0
31
0.0
0
LINE
8
FURNITURE
10
2280.0
20
2500.0
30
0.0
11
2280.0
21
1900.0
31
0.0
0
TEXT
8
LABELS
10
2400.0
20
2200.0
30
0.0
40
120.0
1
P018: NW-CHA-012
0
LINE
8
FURNITURE
10
3400.0
20
2425.0
30
0.0
11
4600.0
21
2425.0
31
0.0
0
LINE
8
FURNITURE
10
4600.0
20
2425.0
30
0.0
11
4600.0
21
3175.0
31
0.0
0
LINE
8
FURNITURE
10
4600.0
20
3175.0
30
0.0
11
3400.0
21
3175.0
31
0.0
0
LINE
8
FURNITURE
10
3400.0
20
3175.0
30
0.0
11
3400.0
21
2425.0
31
0.0
0
TEXT
8
LABELS
10
3800.0
20
2800.0
30
0.0
40
120.0
1
P019: NW-DES-009
0
LINE
8
FURNITURE
10
3680.0
20
1900.0
30
0.0
11
4320.0
21
1900.0
31
0.0
0
LINE
8
FURNITURE
10
4320.0
20
1900.0
30
0.0
11
4320.0
21
2500.0
31
0.0
0
LINE
8
FURNITURE
10
4320.0
20
2500.0
30
0.0
11
3680.0
21
2500.0
31
0.0
0
LINE
8
FURNITURE
10
3680.0
20
2500.0
30
0.0
11
3680.0
21
1900.0
31
0.0
0
TEXT
8
LABELS
10
3800.0
20
2200.0
30
0.0
40
120.0
1
P020: NW-CHA-012
0
LINE
8
FURNITURE
10
4800.0
20
2425.0
30
0.0
11
6000.0
21
2425.0
31
0.0
0
LINE
8
FURNITURE
10
6000.0
20
2425.0
30
0.0
11
6000.0
21
3175.0
31
0.0
0
LINE
8
FURNITURE
10
6000.0
20
3175.0
30
0.0
11
4800.0
21
3175.0
31
0.0
0
LINE
8
FURNITURE
10
4800.0
20
3175.0
30
0.0
11
4800.0
21
2425.0
31
0.0
0
TEXT
8
LABELS
10
5200.0
20
2800.0
30
0.0
40
120.0
1
P021: NW-DES-009
0
LINE
8
FURNITURE
10
5080.0
20
1900.0
30
0.0
11
5720.0
21
1900.0
31
0.0
0
LINE
8
FURNITURE
10
5720.0
20
1900.0
30
0.0
11
5720.0
21
2500.0
31
0.0
0
LINE
8
FURNITURE
10
5720.0
20
2500.0
30
0.0
11
5080.0
21
2500.0
31
0.0
0
LINE
8
FURNITURE
10
5080.0
20
2500.0
30
0.0
11
5080.0
21
1900.0
31
0.0
0
TEXT
8
LABELS
10
5200.0
20
2200.0
30
0.0
40
120.0
1
P022: NW-CHA-012
0
LINE
8
FURNITURE
10
6200.0
20
2425.0
30
0.0
11
7400.0
21
2425.0
31
0.0
0
LINE
8
FURNITURE
10
7400.0
20
2425.0
30
0.0
11
7400.0
21
3175.0
31
0.0
0
LINE
8
FURNITURE
10
7400.0
20
3175.0
30
0.0
11
6200.0
21
3175.0
31
0.0
0
LINE
8
FURNITURE
10
6200.0
20
3175.0
30
0.0
11
6200.0
21
2425.0
31
0.0
0
TEXT
8
LABELS
10
6600.0
20
2800.0
30
0.0
40
120.0
1
P023: NW-DES-009
0
LINE
8
FURNITURE
10
6480.0
20
1900.0
30
0.0
11
7120.0
21
1900.0
31
0.0
0
LINE
8
FURNITURE
10
7120.0
20
1900.0
30
0.0
11
7120.0
21
2500.0
31
0.0
0
LINE
8
FURNITURE
10
7120.0
20
2500.0
30
0.0
11
6480.0
21
2500.0
31
0.0
0
LINE
8
FURNITURE
10
6480.0
20
2500.0
30
0.0
11
6480.0
21
1900.0
31
0.0
0
TEXT
8
LABELS
10
6600.0
20
2200.0
30
0.0
40
120.0
1
P024: NW-CHA-012
0
LINE
8
FURNITURE
10
7600.0
20
2425.0
30
0.0
11
8800.0
21
2425.0
31
0.0
0
LINE
8
FURNITURE
10
8800.0
20
2425.0
30
0.0
11
8800.0
21
3175.0
31
0.0
0
LINE
8
FURNITURE
10
8800.0
20
3175.0
30
0.0
11
7600.0
21
3175.0
31
0.0
0
LINE
8
FURNITURE
10
7600.0
20
3175.0
30
0.0
11
7600.0
21
2425.0
31
0.0
0
TEXT
8
LABELS
10
8000.0
20
2800.0
30
0.0
40
120.0
1
P025: NW-DES-009
0
LINE
8
FURNITURE
10
7880.0
20
1900.0
30
0.0
11
8520.0
21
1900.0
31
0.0
0
LINE
8
FURNITURE
10
8520.0
20
1900.0
30
0.0
11
8520.0
21
2500.0
31
0.0
0
LINE
8
FURNITURE
10
8520.0
20
2500.0
30
0.0
11
7880.0
21
2500.0
31
0.0
0
LINE
8
FURNITURE
10
7880.0
20
2500.0
30
0.0
11
7880.0
21
1900.0
31
0.0
0
TEXT
8
LABELS
10
8000.0
20
2200.0
30
0.0
40
120.0
1
P026: NW-CHA-012
0
LINE
8
FURNITURE
10
8800.0
20
2425.0
30
0.0
11
10000.0
21
2425.0
31
0.0
0
LINE
8
FURNITURE
10
10000.0
20
2425.0
30
0.0
11
10000.0
21
3175.0
31
0.0
0
LINE
8
FURNITURE
10
10000.0
20
3175.0
30
0.0
11
8800.0
21
3175.0
31
0.0
0
LINE
8
FURNITURE
10
8800.0
20
3175.0
30
0.0
11
8800.0
21
2425.0
31
0.0
0
TEXT
8
LABELS
10
9200.0
20
2800.0
30
0.0
40
120.0
1
P027: NW-DES-009
0
LINE
8
FURNITURE
10
9080.0
20
1900.0
30
0.0
11
9720.0
21
1900.0
31
0.0
0
LINE
8
FURNITURE
10
9720.0
20
1900.0
30
0.0
11
9720.0
21
2500.0
31
0.0
0
LINE
8
FURNITURE
10
9720.0
20
2500.0
30
0.0
11
9080.0
21
2500.0
31
0.0
0
LINE
8
FURNITURE
10
9080.0
20
2500.0
30
0.0
11
9080.0
21
1900.0
31
0.0
0
TEXT
8
LABELS
10
9200.0
20
2200.0
30
0.0
40
120.0
1
P028: NW-CHA-012
0
LINE
8
FURNITURE
10
650.0
20
1400.0
30
0.0
11
650.0
21
2600.0
31
0.0
0
LINE
8
FURNITURE
10
650.0
20
2600.0
30
0.0
11
150.00000000000003
21
2600.0
31
0.0
0
LINE
8
FURNITURE
10
150.00000000000003
20
2600.0
30
0.0
11
149.99999999999997
21
1400.0
31
0.0
0
LINE
8
FURNITURE
10
149.99999999999997
20
1400.0
30
0.0
11
650.0
21
1400.0
31
0.0
0
TEXT
8
LABELS
10
200.0
20
2000.0
30
0.0
40
120.0
1
P029: NW-STO-011
0
LINE
8
FURNITURE
10
650.0
20
2600.0
30
0.0
11
650.0
21
3800.0
31
0.0
0
LINE
8
FURNITURE
10
650.0
20
3800.0
30
0.0
11
150.00000000000003
21
3800.0
31
0.0
0
LINE
8
FURNITURE
10
150.00000000000003
20
3800.0
30
0.0
11
149.99999999999997
21
2600.0
31
0.0
0
LINE
8
FURNITURE
10
149.99999999999997
20
2600.0
30
0.0
11
650.0
21
2600.0
31
0.0
0
TEXT
8
LABELS
10
200.0
20
3200.0
30
0.0
40
120.0
1
P030: NW-STO-011
0
LINE
8
FURNITURE
10
10050.0
20
600.0
30
0.0
11
10050.0
21
1800.0
31
0.0
0
LINE
8
FURNITURE
10
10050.0
20
1800.0
30
0.0
11
9550.0
21
1800.0
31
0.0
0
LINE
8
FURNITURE
10
9550.0
20
1800.0
30
0.0
11
9550.0
21
600.0
31
0.0
0
LINE
8
FURNITURE
10
9550.0
20
600.0
30
0.0
11
10050.0
21
600.0
31
0.0
0
TEXT
8
LABELS
10
9600.0
20
1200.0
30
0.0
40
120.0
1
P031: NW-STO-011
0
LINE
8
FURNITURE
10
10050.0
20
1800.0
30
0.0
11
10050.0
21
3000.0
31
0.0
0
LINE
8
FURNITURE
10
10050.0
20
3000.0
30
0.0
11
9550.0
21
3000.0
31
0.0
0
LINE
8
FURNITURE
10
9550.0
20
3000.0
30
0.0
11
9550.0
21
1800.0
31
0.0
0
LINE
8
FURNITURE
10
9550.0
20
1800.0
30
0.0
11
10050.0
21
1800.0
31
0.0
0
TEXT
8
LABELS
10
9600.0
20
2400.0
30
0.0
40
120.0
1
P032: NW-STO-011
0
ENDSEC
0
EOF
