0
SECTION
2
HEADER
9
$ACADVER
1
AC1009
0
ENDSEC
0
SECTION
2
TABLES
0
TABLE
2
LAYER
70
5
0
LAYER
2
ROOM_BOUNDARY
70
0
62
4
6
CONTINUOUS
0
LAYER
2
DOORS_SWING
70
0
62
2
6
CONTINUOUS
0
LAYER
2
EGRESS
70
0
62
6
6
DASHED
0
LAYER
2
FURNITURE
70
0
62
3
6
CONTINUOUS
0
LAYER
2
LABELS
70
0
62
7
6
CONTINUOUS
0
ENDTAB
0
ENDSEC
0
SECTION
2
ENTITIES
0
LINE
8
ROOM_BOUNDARY
10
0.0
20
0.0
30
0.0
11
7200.0
21
0.0
31
0.0
0
LINE
8
ROOM_BOUNDARY
10
7200.0
20
0.0
30
0.0
11
7200.0
21
5400.0
31
0.0
0
LINE
8
ROOM_BOUNDARY
10
7200.0
20
5400.0
30
0.0
11
0.0
21
5400.0
31
0.0
0
LINE
8
ROOM_BOUNDARY
10
0.0
20
5400.0
30
0.0
11
0.0
21
0.0
31
0.0
0
LINE
8
EGRESS
10
1000.0
20
0.0
30
0.0
11
6600.0
21
4800.0
31
0.0
0
LINE
8
FURNITURE
10
400.0
20
4100.0
30
0.0
11
2000.0
21
4100.0
31
0.0
0
LINE
8
FURNITURE
10
2000.0
20
4100.0
30
0.0
11
2000.0
21
4700.0
31
0.0
0
LINE
8
FURNITURE
10
2000.0
20
4700.0
30
0.0
11
400.0
21
4700.0
31
0.0
0
LINE
8
FURNITURE
10
400.0
20
4700.0
30
0.0
11
400.0
21
4100.0
31
0.0
0
TEXT
8
LABELS
10
1000.0
20
4400.0
30
0.0
40
120.0
1
P001: NW-DES-003
0
LINE
8
FURNITURE
10
2000.0
20
4100.0
30
0.0
11
3600.0
21
4100.0
31
0.0
0
LINE
8
FURNITURE
10
3600.0
20
4100.0
30
0.0
11
3600.0
21
4700.0
31
0.0
0
LINE
8
FURNITURE
10
3600.0
20
4700.0
30
0.0
11
2000.0
21
4700.0
31
0.0
0
LINE
8
FURNITURE
10
2000.0
20
4700.0
30
0.0
11
2000.0
21
4100.0
31
0.0
0
TEXT
8
LABELS
10
2600.0
20
4400.0
30
0.0
40
120.0
1
P002: NW-DES-003
0
LINE
8
FURNITURE
10
400.0
20
3500.0
30
0.0
11
2000.0
21
3500.0
31
0.0
0
LINE
8
FURNITURE
10
2000.0
20
3500.0
30
0.0
11
2000.0
21
4100.0
31
0.0
0
LINE
8
FURNITURE
10
2000.0
20
4100.0
30
0.0
11
400.0
21
4100.0
31
0.0
0
LINE
8
FURNITURE
10
400.0
20
4100.0
30
0.0
11
400.0
21
3500.0
31
0.0
0
TEXT
8
LABELS
10
1000.0
20
3800.0
30
0.0
40
120.0
1
P003: NW-DES-003
0
LINE
8
FURNITURE
10
2000.0
20
3500.0
30
0.0
11
3600.0
21
3500.0
31
0.0
0
LINE
8
FURNITURE
10
3600.0
20
3500.0
30
0.0
11
3600.0
21
4100.0
31
0.0
0
LINE
8
FURNITURE
10
3600.0
20
4100.0
30
0.0
11
2000.0
21
4100.0
31
0.0
0
LINE
8
FURNITURE
10
2000.0
20
4100.0
30
0.0
11
2000.0
21
3500.0
31
0.0
0
TEXT
8
LABELS
10
2600.0
20
3800.0
30
0.0
40
120.0
1
P004: NW-DES-003
0
LINE
8
FURNITURE
10
480.0
20
4740.0
30
0.0
11
1120.0
21
4740.0
31
0.0
0
LINE
8
FURNITURE
10
1120.0
20
4740.0
30
0.0
11
1120.0
21
5260.0
31
0.0
0
LINE
8
FURNITURE
10
1120.0
20
5260.0
30
0.0
11
480.0
21
5260.0
31
0.0
0
LINE
8
FURNITURE
10
480.0
20
5260.0
30
0.0
11
480.0
21
4740.0
31
0.0
0
TEXT
8
LABELS
10
600.0
20
5000.0
30
0.0
40
120.0
1
P005: NW-CHA-004
0
LINE
8
FURNITURE
10
1280.0
20
4740.0
30
0.0
11
1920.0
21
4740.0
31
0.0
0
LINE
8
FURNITURE
10
1920.0
20
4740.0
30
0.0
11
1920.0
21
5260.0
31
0.0
0
LINE
8
FURNITURE
10
1920.0
20
5260.0
30
0.0
11
1280.0
21
5260.0
31
0.0
0
LINE
8
FURNITURE
10
1280.0
20
5260.0
30
0.0
11
1280.0
21
4740.0
31
0.0
0
TEXT
8
LABELS
10
1400.0
20
5000.0
30
0.0
40
120.0
1
P006: NW-CHA-004
0
LINE
8
FURNITURE
10
2080.0
20
4740.0
30
0.0
11
2720.0
21
4740.0
31
0.0
0
LINE
8
FURNITURE
10
2720.0
20
4740.0
30
0.0
11
2720.0
21
5260.0
31
0.0
0
LINE
8
FURNITURE
10
2720.0
20
5260.0
30
0.0
11
2080.0
21
5260.0
31
0.0
0
LINE
8
FURNITURE
10
2080.0
20
5260.0
30
0.0
11
2080.0
21
4740.0
31
0.0
0
TEXT
8
LABELS
10
2200.0
20
5000.0
30
0.0
40
120.0
1
P007: NW-CHA-004
0
LINE
8
FURNITURE
10
2880.0
20
4740.0
30
0.0
11
3520.0
21
4740.0
31
0.0
0
LINE
8
FURNITURE
10
3520.0
20
4740.0
30
0.0
11
3520.0
21
5260.0
31
0.0
0
LINE
8
FURNITURE
10
3520.0
20
5260.0
30
0.0
11
2880.0
21
5260.0
31
0.0
0
LINE
8
FURNITURE
10
2880.0
20
5260.0
30
0.0
11
2880.0
21
4740.0
31
0.0
0
TEXT
8
LABELS
10
3000.0
20
5000.0
30
0.0
40
120.0
1
P008: NW-CHA-004
0
LINE
8
FURNITURE
10
480.0
20
2940.0
30
0.0
11
1120.0
21
2940.0
31
0.0
0
LINE
8
FURNITURE
10
1120.0
20
2940.0
30
0.0
11
1120.0
21
3460.0
31
0.0
0
LINE
8
FURNITURE
10
1120.0
20
3460.0
30
0.0
11
480.0
21
3460.0
31
0.0
0
LINE
8
FURNITURE
10
480.0
20
3460.0
30
0.0
11
480.0
21
2940.0
31
0.0
0
TEXT
8
LABELS
10
600.0
20
3200.0
30
0.0
40
120.0
1
P009: NW-CHA-004
0
LINE
8
FURNITURE
10
1280.0
20
2940.0
30
0.0
11
1920.0
21
2940.0
31
0.0
0
LINE
8
FURNITURE
10
1920.0
20
2940.0
30
0.0
11
1920.0
21
3460.0
31
0.0
0
LINE
8
FURNITURE
10
1920.0
20
3460.0
30
0.0
11
1280.0
21
3460.0
31
0.0
0
LINE
8
FURNITURE
10
1280.0
20
3460.0
30
0.0
11
1280.0
21
2940.0
31
0.0
0
TEXT
8
LABELS
10
1400.0
20
3200.0
30
0.0
40
120.0
1
P010: NW-CHA-004
0
LINE
8
FURNITURE
10
2080.0
20
2940.0
30
0.0
11
2720.0
21
2940.0
31
0.0
0
LINE
8
FURNITURE
10
2720.0
20
2940.0
30
0.0
11
2720.0
21
3460.0
31
0.0
0
LINE
8
FURNITURE
10
2720.0
20
3460.0
30
0.0
11
2080.0
21
3460.0
31
0.0
0
LINE
8
FURNITURE
10
2080.0
20
3460.0
30
0.0
11
2080.0
21
2940.0
31
0.0
0
TEXT
8
LABELS
10
2200.0
20
3200.0
30
0.0
40
120.0
1
P011: NW-CHA-004
0
LINE
8
FURNITURE
10
2880.0
20
2940.0
30
0.0
11
3520.0
21
2940.0
31
0.0
0
LINE
8
FURNITURE
10
3520.0
20
2940.0
30
0.0
11
3520.0
21
3460.0
31
0.0
0
LINE
8
FURNITURE
10
3520.0
20
3460.0
30
0.0
11
2880.0
21
3460.0
31
0.0
0
LINE
8
FURNITURE
10
2880.0
20
3460.0
30
0.0
11
2880.0
21
2940.0
31
0.0
0
TEXT
8
LABELS
10
3000.0
20
3200.0
30
0.0
40
120.0
1
P012: NW-CHA-004
0
LINE
8
FURNITURE
10
5400.0
20
1300.0
30
0.0
11
7000.0
21
1300.0
31
0.0
0
LINE
8
FURNITURE
10
7000.0
20
1300.0
30
0.0
11
7000.0
21
1900.0
31
0.0
0
LINE
8
FURNITURE
10
7000.0
20
1900.0
30
0.0
11
5400.0
21
1900.0
31
0.0
0
LINE
8
FURNITURE
10
5400.0
20
1900.0
30
0.0
11
5400.0
21
1300.0
31
0.0
0
TEXT
8
LABELS
10
6000.0
20
1600.0
30
0.0
40
120.0
1
P013: NW-DES-003
0
LINE
8
FURNITURE
10
5400.0
20
700.0
30
0.0
11
7000.0
21
700.0
31
0.0
0
LINE
8
FURNITURE
10
7000.0
20
700.0
30
0.0
11
7000.0
21
1300.0
31
0.0
0
LINE
8
FURNITURE
10
7000.0
20
1300.0
30
0.0
11
5400.0
21
1300.0
31
0.0
0
LINE
8
FURNITURE
10
5400.0
20
1300.0
30
0.0
11
5400.0
21
700.0
31
0.0
0
TEXT
8
LABELS
10
6000.0
20
1000.0
30
0.0
40
120.0
1
P014: NW-DES-003
0
LINE
8
FURNITURE
10
5480.0
20
1940.0
30
0.0
11
6120.0
21
1940.0
31
0.0
0
LINE
8
FURNITURE
10
6120.0
20
1940.0
30
0.0
11
6120.0
21
2460.0
31
0.0
0
LINE
8
FURNITURE
10
6120.0
20
2460.0
30
0.0
11
5480.0
21
2460.0
31
0.0
0
LINE
8
FURNITURE
10
5480.0
20
2460.0
30
0.0
11
5480.0
21
1940.0
31
0.0
0
TEXT
8
LABELS
10
5600.0
20
2200.0
30
0.0
40
120.0
1
P015: NW-CHA-004
0
LINE
8
FURNITURE
10
6280.0
20
1940.0
30
0.0
11
6920.0
21
1940.0
31
0.0
0
LINE
8
FURNITURE
10
6920.0
20
1940.0
30
0.0
11
6920.0
21
2460.0
31
0.0
0
LINE
8
FURNITURE
10
6920.0
20
2460.0
30
0.0
11
6280.0
21
2460.0
31
0.0
0
LINE
8
FURNITURE
10
6280.0
20
2460.0
30
0.0
11
6280.0
21
1940.0
31
0.0
0
TEXT
8
LABELS
10
6400.0
20
2200.0
30
0.0
40
120.0
1
P016: NW-CHA-004
0
LINE
8
FURNITURE
10
5480.0
20
140.0
30
0.0
11
6120.0
21
140.0
31
0.0
0
LINE
8
FURNITURE
10
6120.0
20
140.0
30
0.0
11
6120.0
21
660.0
31
0.0
0
LINE
8
FURNITURE
10
6120.0
20
660.0
30
0.0
11
5480.0
21
660.0
31
0.0
0
LINE
8
FURNITURE
10
5480.0
20
660.0
30
0.0
11
5480.0
21
140.0
31
0.0
0
TEXT
8
LABELS
10
5600.0
20
400.0
30
0.0
40
120.0
1
P017: NW-CHA-004
0
LINE
8
FURNITURE
10
6280.0
20
140.0
30
0.0
11
6920.0
21
140.0
31
0.0
0
LINE
8
FURNITURE
10
6920.0
20
140.0
30
0.0
11
6920.0
21
660.0
31
0.0
0
LINE
8
FURNITURE
10
6920.0
20
660.0
30
0.0
11
6280.0
21
660.0
31
0.0
0
LINE
8
FURNITURE
10
6280.0
20
660.0
30
0.0
11
6280.0
21
140.0
31
0.0
0
TEXT
8
LABELS
10
6400.0
20
400.0
30
0.0
40
120.0
1
P018: NW-CHA-004
0
LINE
8
FURNITURE
10
4450.0
20
350.0
30
0.0
11
4450.0
21
1550.0
31
0.0
0
LINE
8
FURNITURE
10
4450.0
20
1550.0
30
0.0
11
3750.0
21
1550.0
31
0.0
0
LINE
8
FURNITURE
10
3750.0
20
1550.0
30
0.0
11
3750.0
21
350.0
31
0.0
0
LINE
8
FURNITURE
10
3750.0
20
350.0
30
0.0
11
4450.0
21
350.0
31
0.0
0
TEXT
8
LABELS
10
3900.0
20
950.0
30
0.0
40
120.0
1
P019: NW-COL-001
0
LINE
8
FURNITURE
10
3600.0
20
4850.0
30
0.0
11
4600.0
21
4850.0
31
0.0
0
LINE
8
FURNITURE
10
4600.0
20
4850.0
30
0.0
11
4600.0
21
5250.0
31
0.0
0
LINE
8
FURNITURE
10
4600.0
20
5250.0
30
0.0
11
3600.0
21
5250.0
31
0.0
0
LINE
8
FURNITURE
10
3600.0
20
5250.0
30
0.0
11
3600.0
21
4850.0
31
0.0
0
TEXT
8
LABELS
10
3900.0
20
5050.0
30
0.0
40
120.0
1
P020: NW-STO-002
0
LINE
8
FURNITURE
10
4600.0
20
4850.0
30
0.0
11
5600.0
21
4850.0
31
0.0
0
LINE
8
FURNITURE
10
5600.0
20
4850.0
30
0.0
11
5600.0
21
5250.0
31
0.0
0
LINE
8
FURNITURE
10
5600.0
20
5250.0
30
0.0
11
4600.0
21
5250.0
31
0.0
0
LINE
8
FURNITURE
10
4600.0
20
5250.0
30
0.0
11
4600.0
21
4850.0
31
0.0
0
TEXT
8
LABELS
10
4900.0
20
5050.0
30
0.0
40
120.0
1
P021: NW-STO-002
0
ENDSEC
0
EOF
