0
SECTION
2
HEADER
9
$ACADVER
1
AC1009
0
ENDSEC
0
SECTION
2
TABLES
0
TABLE
2
LAYER
70
5
0
LAYER
2
ROOM_BOUNDARY
70
0
62
4
6
CONTINUOUS
0
LAYER
2
DOORS_SWING
70
0
62
2
6
CONTINUOUS
0
LAYER
2
EGRESS
70
0
62
6
6
DASHED
0
LAYER
2
FURNITURE
70
0
62
3
6
CONTINUOUS
0
LAYER
2
LABELS
70
0
62
7
6
CONTINUOUS
0
ENDTAB
0
ENDSEC
0
SECTION
2
ENTITIES
0
LINE
8
ROOM_BOUNDARY
10
0.0
20
0.0
30
0.0
11
6600.0
21
0.0
31
0.0
0
LINE
8
ROOM_BOUNDARY
10
6600.0
20
0.0
30
0.0
11
6600.0
21
4800.0
31
0.0
0
LINE
8
ROOM_BOUNDARY
10
6600.0
20
4800.0
30
0.0
11
4200.0
21
4800.0
31
0.0
0
LINE
8
ROOM_BOUNDARY
10
4200.0
20
4800.0
30
0.0
11
4200.0
21
6200.0
31
0.0
0
LINE
8
ROOM_BOUNDARY
10
4200.0
20
6200.0
30
0.0
11
0.0
21
6200.0
31
0.0
0
LINE
8
ROOM_BOUNDARY
10
0.0
20
6200.0
30
0.0
11
0.0
21
0.0
31
0.0
0
LINE
8
EGRESS
10
3050.0
20
0.0
30
0.0
11
500.0
21
5500.0
31
0.0
0
LINE
8
FURNITURE
10
4500.0
20
3550.0
30
0.0
11
5900.0
21
3550.0
31
0.0
0
LINE
8
FURNITURE
10
5900.0
20
3550.0
30
0.0
11
5900.0
21
4250.0
31
0.0
0
LINE
8
FURNITURE
10
5900.0
20
4250.0
30
0.0
11
4500.0
21
4250.0
31
0.0
0
LINE
8
FURNITURE
10
4500.0
20
4250.0
30
0.0
11
4500.0
21
3550.0
31
0.0
0
TEXT
8
LABELS
10
5000.0
20
3900.0
30
0.0
40
120.0
1
P001: NW-DES-006
0
LINE
8
FURNITURE
10
4500.0
20
3950.0
30
0.0
11
5900.0
21
3950.0
31
0.0
0
LINE
8
FURNITURE
10
5900.0
20
3950.0
30
0.0
11
5900.0
21
4650.0
31
0.0
0
LINE
8
FURNITURE
10
5900.0
20
4650.0
30
0.0
11
4500.0
21
4650.0
31
0.0
0
LINE
8
FURNITURE
10
4500.0
20
4650.0
30
0.0
11
4500.0
21
3950.0
31
0.0
0
TEXT
8
LABELS
10
5000.0
20
4300.0
30
0.0
40
120.0
1
P002: NW-DES-006
0
LINE
8
FURNITURE
10
4680.0
20
2720.0
30
0.0
11
5320.0
21
2720.0
31
0.0
0
LINE
8
FURNITURE
10
5320.0
20
2720.0
30
0.0
11
5320.0
21
3280.0
31
0.0
0
LINE
8
FURNITURE
10
5320.0
20
3280.0
30
0.0
11
4680.0
21
3280.0
31
0.0
0
LINE
8
FURNITURE
10
4680.0
20
3280.0
30
0.0
11
4680.0
21
2720.0
31
0.0
0
TEXT
8
LABELS
10
4800.0
20
3000.0
30
0.0
40
120.0
1
P003: NW-CHA-008
0
LINE
8
FURNITURE
10
5480.0
20
2720.0
30
0.0
11
6120.0
21
2720.0
31
0.0
0
LINE
8
FURNITURE
10
6120.0
20
2720.0
30
0.0
11
6120.0
21
3280.0
31
0.0
0
LINE
8
FURNITURE
10
6120.0
20
3280.0
30
0.0
11
5480.0
21
3280.0
31
0.0
0
LINE
8
FURNITURE
10
5480.0
20
3280.0
30
0.0
11
5480.0
21
2720.0
31
0.0
0
TEXT
8
LABELS
10
5600.0
20
3000.0
30
0.0
40
120.0
1
P004: NW-CHA-008
0
LINE
8
FURNITURE
10
4700.0
20
1250.0
30
0.0
11
6100.0
21
1250.0
31
0.0
0
LINE
8
FURNITURE
10
6100.0
20
1250.0
30
0.0
11
6100.0
21
1950.0
31
0.0
0
LINE
8
FURNITURE
10
6100.0
20
1950.0
30
0.0
11
4700.0
21
1950.0
31
0.0
0
LINE
8
FURNITURE
10
4700.0
20
1950.0
30
0.0
11
4700.0
21
1250.0
31
0.0
0
TEXT
8
LABELS
10
5200.0
20
1600.0
30
0.0
40
120.0
1
P005: NW-DES-006
0
LINE
8
FURNITURE
10
4700.0
20
1950.0
30
0.0
11
6100.0
21
1950.0
31
0.0
0
LINE
8
FURNITURE
10
6100.0
20
1950.0
30
0.0
11
6100.0
21
2650.0
31
0.0
0
LINE
8
FURNITURE
10
6100.0
20
2650.0
30
0.0
11
4700.0
21
2650.0
31
0.0
0
LINE
8
FURNITURE
10
4700.0
20
2650.0
30
0.0
11
4700.0
21
1950.0
31
0.0
0
TEXT
8
LABELS
10
5200.0
20
2300.0
30
0.0
40
120.0
1
P006: NW-DES-006
0
LINE
8
FURNITURE
10
4680.0
20
720.0
30
0.0
11
5320.0
21
720.0
31
0.0
0
LINE
8
FURNITURE
10
5320.0
20
720.0
30
0.0
11
5320.0
21
1280.0
31
0.0
0
LINE
8
FURNITURE
10
5320.0
20
1280.0
30
0.0
11
4680.0
21
1280.0
31
0.0
0
LINE
8
FURNITURE
10
4680.0
20
1280.0
30
0.0
11
4680.0
21
720.0
31
0.0
0
TEXT
8
LABELS
10
4800.0
20
1000.0
30
0.0
40
120.0
1
P007: NW-CHA-008
0
LINE
8
FURNITURE
10
5480.0
20
720.0
30
0.0
11
6120.0
21
720.0
31
0.0
0
LINE
8
FURNITURE
10
6120.0
20
720.0
30
0.0
11
6120.0
21
1280.0
31
0.0
0
LINE
8
FURNITURE
10
6120.0
20
1280.0
30
0.0
11
5480.0
21
1280.0
31
0.0
0
LINE
8
FURNITURE
10
5480.0
20
1280.0
30
0.0
11
5480.0
21
720.0
31
0.0
0
TEXT
8
LABELS
10
5600.0
20
1000.0
30
0.0
40
120.0
1
P008: NW-CHA-008
0
LINE
8
FURNITURE
10
3100.0
20
1250.0
30
0.0
11
4500.0
21
1250.0
31
0.0
0
LINE
8
FURNITURE
10
4500.0
20
1250.0
30
0.0
11
4500.0
21
1950.0
31
0.0
0
LINE
8
FURNITURE
10
4500.0
20
1950.0
30
0.0
11
3100.0
21
1950.0
31
0.0
0
LINE
8
FURNITURE
10
3100.0
20
1950.0
30
0.0
11
3100.0
21
1250.0
31
0.0
0
TEXT
8
LABELS
10
3600.0
20
1600.0
30
0.0
40
120.0
1
P009: NW-DES-006
0
LINE
8
FURNITURE
10
3100.0
20
1950.0
30
0.0
11
4500.0
21
1950.0
31
0.0
0
LINE
8
FURNITURE
10
4500.0
20
1950.0
30
0.0
11
4500.0
21
2650.0
31
0.0
0
LINE
8
FURNITURE
10
4500.0
20
2650.0
30
0.0
11
3100.0
21
2650.0
31
0.0
0
LINE
8
FURNITURE
10
3100.0
20
2650.0
30
0.0
11
3100.0
21
1950.0
31
0.0
0
TEXT
8
LABELS
10
3600.0
20
2300.0
30
0.0
40
120.0
1
P010: NW-DES-006
0
LINE
8
FURNITURE
10
3480.0
20
720.0
30
0.0
11
4120.0
21
720.0
31
0.0
0
LINE
8
FURNITURE
10
4120.0
20
720.0
30
0.0
11
4120.0
21
1280.0
31
0.0
0
LINE
8
FURNITURE
10
4120.0
20
1280.0
30
0.0
11
3480.0
21
1280.0
31
0.0
0
LINE
8
FURNITURE
10
3480.0
20
1280.0
30
0.0
11
3480.0
21
720.0
31
0.0
0
TEXT
8
LABELS
10
3600.0
20
1000.0
30
0.0
40
120.0
1
P011: NW-CHA-008
0
LINE
8
FURNITURE
10
3480.0
20
2620.0
30
0.0
11
4120.0
21
2620.0
31
0.0
0
LINE
8
FURNITURE
10
4120.0
20
2620.0
30
0.0
11
4120.0
21
3180.0
31
0.0
0
LINE
8
FURNITURE
10
4120.0
20
3180.0
30
0.0
11
3480.0
21
3180.0
31
0.0
0
LINE
8
FURNITURE
10
3480.0
20
3180.0
30
0.0
11
3480.0
21
2620.0
31
0.0
0
TEXT
8
LABELS
10
3600.0
20
2900.0
30
0.0
40
120.0
1
P012: NW-CHA-008
0
LINE
8
FURNITURE
10
3100.0
20
3250.0
30
0.0
11
4500.0
21
3250.0
31
0.0
0
LINE
8
FURNITURE
10
4500.0
20
3250.0
30
0.0
11
4500.0
21
3950.0
31
0.0
0
LINE
8
FURNITURE
10
4500.0
20
3950.0
30
0.0
11
3100.0
21
3950.0
31
0.0
0
LINE
8
FURNITURE
10
3100.0
20
3950.0
30
0.0
11
3100.0
21
3250.0
31
0.0
0
TEXT
8
LABELS
10
3600.0
20
3600.0
30
0.0
40
120.0
1
P013: NW-DES-006
0
LINE
8
FURNITURE
10
3100.0
20
3950.0
30
0.0
11
4500.0
21
3950.0
31
0.0
0
LINE
8
FURNITURE
10
4500.0
20
3950.0
30
0.0
11
4500.0
21
4650.0
31
0.0
0
LINE
8
FURNITURE
10
4500.0
20
4650.0
30
0.0
11
3100.0
21
4650.0
31
0.0
0
LINE
8
FURNITURE
10
3100.0
20
4650.0
30
0.0
11
3100.0
21
3950.0
31
0.0
0
TEXT
8
LABELS
10
3600.0
20
4300.0
30
0.0
40
120.0
1
P014: NW-DES-006
0
LINE
8
FURNITURE
10
3480.0
20
2720.0
30
0.0
11
4120.0
21
2720.0
31
0.0
0
LINE
8
FURNITURE
10
4120.0
20
2720.0
30
0.0
11
4120.0
21
3280.0
31
0.0
0
LINE
8
FURNITURE
10
4120.0
20
3280.0
30
0.0
11
3480.0
21
3280.0
31
0.0
0
LINE
8
FURNITURE
10
3480.0
20
3280.0
30
0.0
11
3480.0
21
2720.0
31
0.0
0
TEXT
8
LABELS
10
3600.0
20
3000.0
30
0.0
40
120.0
1
P015: NW-CHA-008
0
LINE
8
FURNITURE
10
3380.0
20
4720.0
30
0.0
11
4020.0
21
4720.0
31
0.0
0
LINE
8
FURNITURE
10
4020.0
20
4720.0
30
0.0
11
4020.0
21
5280.0
31
0.0
0
LINE
8
FURNITURE
10
4020.0
20
5280.0
30
0.0
11
3380.0
21
5280.0
31
0.0
0
LINE
8
FURNITURE
10
3380.0
20
5280.0
30
0.0
11
3380.0
21
4720.0
31
0.0
0
TEXT
8
LABELS
10
3500.0
20
5000.0
30
0.0
40
120.0
1
P016: NW-CHA-008
0
LINE
8
FURNITURE
10
800.0
20
4450.0
30
0.0
11
3200.0
21
4450.0
31
0.0
0
LINE
8
FURNITURE
10
3200.0
20
4450.0
30
0.0
11
3200.0
21
5150.0
31
0.0
0
LINE
8
FURNITURE
10
3200.0
20
5150.0
30
0.0
11
800.0
21
5150.0
31
0.0
0
LINE
8
FURNITURE
10
800.0
20
5150.0
30
0.0
11
800.0
21
4450.0
31
0.0
0
TEXT
8
LABELS
10
1800.0
20
4800.0
30
0.0
40
120.0
1
P017: NW-COL-004
0
LINE
8
FURNITURE
10
1180.0
20
4520.0
30
0.0
11
1820.0
21
4520.0
31
0.0
0
LINE
8
FURNITURE
10
1820.0
20
4520.0
30
0.0
11
1820.0
21
5080.0
31
0.0
0
LINE
8
FURNITURE
10
1820.0
20
5080.0
30
0.0
11
1180.0
21
5080.0
31
0.0
0
LINE
8
FURNITURE
10
1180.0
20
5080.0
30
0.0
11
1180.0
21
4520.0
31
0.0
0
TEXT
8
LABELS
10
1300.0
20
4800.0
30
0.0
40
120.0
1
P018: NW-CHA-008
0
LINE
8
FURNITURE
10
2180.0
20
4520.0
30
0.0
11
2820.0
21
4520.0
31
0.0
0
LINE
8
FURNITURE
10
2820.0
20
4520.0
30
0.0
11
2820.0
21
5080.0
31
0.0
0
LINE
8
FURNITURE
10
2820.0
20
5080.0
30
0.0
11
2180.0
21
5080.0
31
0.0
0
LINE
8
FURNITURE
10
2180.0
20
5080.0
30
0.0
11
2180.0
21
4520.0
31
0.0
0
TEXT
8
LABELS
10
2300.0
20
4800.0
30
0.0
40
120.0
1
P019: NW-CHA-008
0
LINE
8
FURNITURE
10
1590.0
20
900.0
30
0.0
11
1590.0
21
1500.0
31
0.0
0
LINE
8
FURNITURE
10
1590.0
20
1500.0
30
0.0
11
1410.0
21
1500.0
31
0.0
0
LINE
8
FURNITURE
10
1410.0
20
1500.0
30
0.0
11
1410.0
21
900.0
31
0.0
0
LINE
8
FURNITURE
10
1410.0
20
900.0
30
0.0
11
1590.0
21
900.0
31
0.0
0
TEXT
8
LABELS
10
1300.0
20
1200.0
30
0.0
40
120.0
1
P020: NW-ACC-003
0
LINE
8
FURNITURE
10
1590.0
20
2900.0
30
0.0
11
1590.0
21
3500.0
31
0.0
0
LINE
8
FURNITURE
10
1590.0
20
3500.0
30
0.0
11
1410.0
21
3500.0
31
0.0
0
LINE
8
FURNITURE
10
1410.0
20
3500.0
30
0.0
11
1410.0
21
2900.0
31
0.0
0
LINE
8
FURNITURE
10
1410.0
20
2900.0
30
0.0
11
1590.0
21
2900.0
31
0.0
0
TEXT
8
LABELS
10
1300.0
20
3200.0
30
0.0
40
120.0
1
P022: NW-ACC-003
0
LINE
8
FURNITURE
10
6290.0
20
1200.0
30
0.0
11
6290.0
21
1800.0
31
0.0
0
LINE
8
FURNITURE
10
6290.0
20
1800.0
30
0.0
11
6110.0
21
1800.0
31
0.0
0
LINE
8
FURNITURE
10
6110.0
20
1800.0
30
0.0
11
6110.0
21
1200.0
31
0.0
0
LINE
8
FURNITURE
10
6110.0
20
1200.0
30
0.0
11
6290.0
21
1200.0
31
0.0
0
TEXT
8
LABELS
10
6000.0
20
1500.0
30
0.0
40
120.0
1
P023: NW-ACC-003
0
LINE
8
FURNITURE
10
6290.0
20
2400.0
30
0.0
11
6290.0
21
3000.0
31
0.0
0
LINE
8
FURNITURE
10
6290.0
20
3000.0
30
0.0
11
6110.0
21
3000.0
31
0.0
0
LINE
8
FURNITURE
10
6110.0
20
3000.0
30
0.0
11
6110.0
21
2400.0
31
0.0
0
LINE
8
FURNITURE
10
6110.0
20
2400.0
30
0.0
11
6290.0
21
2400.0
31
0.0
0
TEXT
8
LABELS
10
6000.0
20
2700.0
30
0.0
40
120.0
1
P024: NW-ACC-003
0
LINE
8
FURNITURE
10
6290.0
20
3600.0
30
0.0
11
6290.0
21
4200.0
31
0.0
0
LINE
8
FURNITURE
10
6290.0
20
4200.0
30
0.0
11
6110.0
21
4200.0
31
0.0
0
LINE
8
FURNITURE
10
6110.0
20
4200.0
30
0.0
11
6110.0
21
3600.0
31
0.0
0
LINE
8
FURNITURE
10
6110.0
20
3600.0
30
0.0
11
6290.0
21
3600.0
31
0.0
0
TEXT
8
LABELS
10
6000.0
20
3900.0
30
0.0
40
120.0
1
P025: NW-ACC-003
0
ENDSEC
0
EOF
