0
SECTION
2
HEADER
9
$ACADVER
1
AC1009
0
ENDSEC
0
SECTION
2
TABLES
0
TABLE
2
LAYER
70
5
0
LAYER
2
ROOM_BOUNDARY
70
0
62
4
6
CONTINUOUS
0
LAYER
2
DOORS_SWING
70
0
62
2
6
CONTINUOUS
0
LAYER
2
EGRESS
70
0
62
6
6
DASHED
0
LAYER
2
FURNITURE
70
0
62
3
6
CONTINUOUS
0
LAYER
2
LABELS
70
0
62
7
6
CONTINUOUS
0
ENDTAB
0
ENDSEC
0
SECTION
2
ENTITIES
0
LINE
8
ROOM_BOUNDARY
10
0.0
20
0.0
30
0.0
11
8400.0
21
0.0
31
0.0
0
LINE
8
ROOM_BOUNDARY
10
8400.0
20
0.0
30
0.0
11
8400.0
21
7600.0
31
0.0
0
LINE
8
ROOM_BOUNDARY
10
8400.0
20
7600.0
30
0.0
11
0.0
21
7600.0
31
0.0
0
LINE
8
ROOM_BOUNDARY
10
0.0
20
7600.0
30
0.0
11
0.0
21
0.0
31
0.0
0
LINE
8
EGRESS
10
1500.0
20
0.0
30
0.0
11
7900.0
21
6200.0
31
0.0
0
LINE
8
FURNITURE
10
1000.0
20
4100.0
30
0.0
11
2400.0
21
4100.0
31
0.0
0
LINE
8
FURNITURE
10
2400.0
20
4100.0
30
0.0
11
2400.0
21
4700.0
31
0.0
0
LINE
8
FURNITURE
10
2400.0
20
4700.0
30
0.0
11
1000.0
21
4700.0
31
0.0
0
LINE
8
FURNITURE
10
1000.0
20
4700.0
30
0.0
11
1000.0
21
4100.0
31
0.0
0
TEXT
8
LABELS
10
1500.0
20
4400.0
30
0.0
40
120.0
1
P001: NW-DES-014
0
LINE
8
FURNITURE
10
1400.0
20
3540.0
30
0.0
11
2000.0
21
3540.0
31
0.0
0
LINE
8
FURNITURE
10
2000.0
20
3540.0
30
0.0
11
2000.0
21
4060.0
31
0.0
0
LINE
8
FURNITURE
10
2000.0
20
4060.0
30
0.0
11
1400.0
21
4060.0
31
0.0
0
LINE
8
FURNITURE
10
1400.0
20
4060.0
30
0.0
11
1400.0
21
3540.0
31
0.0
0
TEXT
8
LABELS
10
1500.0
20
3800.0
30
0.0
40
120.0
1
P002: NW-CHA-015
0
LINE
8
FURNITURE
10
2800.0
20
4100.0
30
0.0
11
4200.0
21
4100.0
31
0.0
0
LINE
8
FURNITURE
10
4200.0
20
4100.0
30
0.0
11
4200.0
21
4700.0
31
0.0
0
LINE
8
FURNITURE
10
4200.0
20
4700.0
30
0.0
11
2800.0
21
4700.0
31
0.0
0
LINE
8
FURNITURE
10
2800.0
20
4700.0
30
0.0
11
2800.0
21
4100.0
31
0.0
0
TEXT
8
LABELS
10
3300.0
20
4400.0
30
0.0
40
120.0
1
P003: NW-DES-014
0
LINE
8
FURNITURE
10
3200.0
20
3540.0
30
0.0
11
3800.0
21
3540.0
31
0.0
0
LINE
8
FURNITURE
10
3800.0
20
3540.0
30
0.0
11
3800.0
21
4060.0
31
0.0
0
LINE
8
FURNITURE
10
3800.0
20
4060.0
30
0.0
11
3200.0
21
4060.0
31
0.0
0
LINE
8
FURNITURE
10
3200.0
20
4060.0
30
0.0
11
3200.0
21
3540.0
31
0.0
0
TEXT
8
LABELS
10
3300.0
20
3800.0
30
0.0
40
120.0
1
P004: NW-CHA-015
0
LINE
8
FURNITURE
10
1000.0
20
5000.0
30
0.0
11
2400.0
21
5000.0
31
0.0
0
LINE
8
FURNITURE
10
2400.0
20
5000.0
30
0.0
11
2400.0
21
5600.0
31
0.0
0
LINE
8
FURNITURE
10
2400.0
20
5600.0
30
0.0
11
1000.0
21
5600.0
31
0.0
0
LINE
8
FURNITURE
10
1000.0
20
5600.0
30
0.0
11
1000.0
21
5000.0
31
0.0
0
TEXT
8
LABELS
10
1500.0
20
5300.0
30
0.0
40
120.0
1
P005: NW-DES-014
0
LINE
8
FURNITURE
10
1400.0
20
5640.0
30
0.0
11
2000.0
21
5640.0
31
0.0
0
LINE
8
FURNITURE
10
2000.0
20
5640.0
30
0.0
11
2000.0
21
6160.0
31
0.0
0
LINE
8
FURNITURE
10
2000.0
20
6160.0
30
0.0
11
1400.0
21
6160.0
31
0.0
0
LINE
8
FURNITURE
10
1400.0
20
6160.0
30
0.0
11
1400.0
21
5640.0
31
0.0
0
TEXT
8
LABELS
10
1500.0
20
5900.0
30
0.0
40
120.0
1
P006: NW-CHA-015
0
LINE
8
FURNITURE
10
2800.0
20
5000.0
30
0.0
11
4200.0
21
5000.0
31
0.0
0
LINE
8
FURNITURE
10
4200.0
20
5000.0
30
0.0
11
4200.0
21
5600.0
31
0.0
0
LINE
8
FURNITURE
10
4200.0
20
5600.0
30
0.0
11
2800.0
21
5600.0
31
0.0
0
LINE
8
FURNITURE
10
2800.0
20
5600.0
30
0.0
11
2800.0
21
5000.0
31
0.0
0
TEXT
8
LABELS
10
3300.0
20
5300.0
30
0.0
40
120.0
1
P007: NW-DES-014
0
LINE
8
FURNITURE
10
3200.0
20
5640.0
30
0.0
11
3800.0
21
5640.0
31
0.0
0
LINE
8
FURNITURE
10
3800.0
20
5640.0
30
0.0
11
3800.0
21
6160.0
31
0.0
0
LINE
8
FURNITURE
10
3800.0
20
6160.0
30
0.0
11
3200.0
21
6160.0
31
0.0
0
LINE
8
FURNITURE
10
3200.0
20
6160.0
30
0.0
11
3200.0
21
5640.0
31
0.0
0
TEXT
8
LABELS
10
3300.0
20
5900.0
30
0.0
40
120.0
1
P008: NW-CHA-015
0
LINE
8
FURNITURE
10
4200.0
20
4100.0
30
0.0
11
5600.0
21
4100.0
31
0.0
0
LINE
8
FURNITURE
10
5600.0
20
4100.0
30
0.0
11
5600.0
21
4700.0
31
0.0
0
LINE
8
FURNITURE
10
5600.0
20
4700.0
30
0.0
11
4200.0
21
4700.0
31
0.0
0
LINE
8
FURNITURE
10
4200.0
20
4700.0
30
0.0
11
4200.0
21
4100.0
31
0.0
0
TEXT
8
LABELS
10
4700.0
20
4400.0
30
0.0
40
120.0
1
P009: NW-DES-014
0
LINE
8
FURNITURE
10
4600.0
20
2940.0
30
0.0
11
5200.0
21
2940.0
31
0.0
0
LINE
8
FURNITURE
10
5200.0
20
2940.0
30
0.0
11
5200.0
21
3460.0
31
0.0
0
LINE
8
FURNITURE
10
5200.0
20
3460.0
30
0.0
11
4600.0
21
3460.0
31
0.0
0
LINE
8
FURNITURE
10
4600.0
20
3460.0
30
0.0
11
4600.0
21
2940.0
31
0.0
0
TEXT
8
LABELS
10
4700.0
20
3200.0
30
0.0
40
120.0
1
P010: NW-CHA-015
0
LINE
8
FURNITURE
10
6000.0
20
4100.0
30
0.0
11
7400.0
21
4100.0
31
0.0
0
LINE
8
FURNITURE
10
7400.0
20
4100.0
30
0.0
11
7400.0
21
4700.0
31
0.0
0
LINE
8
FURNITURE
10
7400.0
20
4700.0
30
0.0
11
6000.0
21
4700.0
31
0.0
0
LINE
8
FURNITURE
10
6000.0
20
4700.0
30
0.0
11
6000.0
21
4100.0
31
0.0
0
TEXT
8
LABELS
10
6500.0
20
4400.0
30
0.0
40
120.0
1
P011: NW-DES-014
0
LINE
8
FURNITURE
10
6400.0
20
3540.0
30
0.0
11
7000.0
21
3540.0
31
0.0
0
LINE
8
FURNITURE
10
7000.0
20
3540.0
30
0.0
11
7000.0
21
4060.0
31
0.0
0
LINE
8
FURNITURE
10
7000.0
20
4060.0
30
0.0
11
6400.0
21
4060.0
31
0.0
0
LINE
8
FURNITURE
10
6400.0
20
4060.0
30
0.0
11
6400.0
21
3540.0
31
0.0
0
TEXT
8
LABELS
10
6500.0
20
3800.0
30
0.0
40
120.0
1
P012: NW-CHA-015
0
LINE
8
FURNITURE
10
4200.0
20
5000.0
30
0.0
11
5600.0
21
5000.0
31
0.0
0
LINE
8
FURNITURE
10
5600.0
20
5000.0
30
0.0
11
5600.0
21
5600.0
31
0.0
0
LINE
8
FURNITURE
10
5600.0
20
5600.0
30
0.0
11
4200.0
21
5600.0
31
0.0
0
LINE
8
FURNITURE
10
4200.0
20
5600.0
30
0.0
11
4200.0
21
5000.0
31
0.0
0
TEXT
8
LABELS
10
4700.0
20
5300.0
30
0.0
40
120.0
1
P013: NW-DES-014
0
LINE
8
FURNITURE
10
4600.0
20
5540.0
30
0.0
11
5200.0
21
5540.0
31
0.0
0
LINE
8
FURNITURE
10
5200.0
20
5540.0
30
0.0
11
5200.0
21
6060.0
31
0.0
0
LINE
8
FURNITURE
10
5200.0
20
6060.0
30
0.0
11
4600.0
21
6060.0
31
0.0
0
LINE
8
FURNITURE
10
4600.0
20
6060.0
30
0.0
11
4600.0
21
5540.0
31
0.0
0
TEXT
8
LABELS
10
4700.0
20
5800.0
30
0.0
40
120.0
1
P014: NW-CHA-015
0
LINE
8
FURNITURE
10
6000.0
20
5000.0
30
0.0
11
7400.0
21
5000.0
31
0.0
0
LINE
8
FURNITURE
10
7400.0
20
5000.0
30
0.0
11
7400.0
21
5600.0
31
0.0
0
LINE
8
FURNITURE
10
7400.0
20
5600.0
30
0.0
11
6000.0
21
5600.0
31
0.0
0
LINE
8
FURNITURE
10
6000.0
20
5600.0
30
0.0
11
6000.0
21
5000.0
31
0.0
0
TEXT
8
LABELS
10
6500.0
20
5300.0
30
0.0
40
120.0
1
P015: NW-DES-014
0
LINE
8
FURNITURE
10
6400.0
20
5540.0
30
0.0
11
7000.0
21
5540.0
31
0.0
0
LINE
8
FURNITURE
10
7000.0
20
5540.0
30
0.0
11
7000.0
21
6060.0
31
0.0
0
LINE
8
FURNITURE
10
7000.0
20
6060.0
30
0.0
11
6400.0
21
6060.0
31
0.0
0
LINE
8
FURNITURE
10
6400.0
20
6060.0
30
0.0
11
6400.0
21
5540.0
31
0.0
0
TEXT
8
LABELS
10
6500.0
20
5800.0
30
0.0
40
120.0
1
P016: NW-CHA-015
0
LINE
8
FURNITURE
10
1000.0
20
1400.0
30
0.0
11
2400.0
21
1400.0
31
0.0
0
LINE
8
FURNITURE
10
2400.0
20
1400.0
30
0.0
11
2400.0
21
2000.0
31
0.0
0
LINE
8
FURNITURE
10
2400.0
20
2000.0
30
0.0
11
1000.0
21
2000.0
31
0.0
0
LINE
8
FURNITURE
10
1000.0
20
2000.0
30
0.0
11
1000.0
21
1400.0
31
0.0
0
TEXT
8
LABELS
10
1500.0
20
1700.0
30
0.0
40
120.0
1
P017: NW-DES-014
0
LINE
8
FURNITURE
10
1400.0
20
940.0
30
0.0
11
2000.0
21
940.0
31
0.0
0
LINE
8
FURNITURE
10
2000.0
20
940.0
30
0.0
11
2000.0
21
1460.0
31
0.0
0
LINE
8
FURNITURE
10
2000.0
20
1460.0
30
0.0
11
1400.0
21
1460.0
31
0.0
0
LINE
8
FURNITURE
10
1400.0
20
1460.0
30
0.0
11
1400.0
21
940.0
31
0.0
0
TEXT
8
LABELS
10
1500.0
20
1200.0
30
0.0
40
120.0
1
P018: NW-CHA-015
0
LINE
8
FURNITURE
10
2800.0
20
1400.0
30
0.0
11
4200.0
21
1400.0
31
0.0
0
LINE
8
FURNITURE
10
4200.0
20
1400.0
30
0.0
11
4200.0
21
2000.0
31
0.0
0
LINE
8
FURNITURE
10
4200.0
20
2000.0
30
0.0
11
2800.0
21
2000.0
31
0.0
0
LINE
8
FURNITURE
10
2800.0
20
2000.0
30
0.0
11
2800.0
21
1400.0
31
0.0
0
TEXT
8
LABELS
10
3300.0
20
1700.0
30
0.0
40
120.0
1
P019: NW-DES-014
0
LINE
8
FURNITURE
10
3200.0
20
940.0
30
0.0
11
3800.0
21
940.0
31
0.0
0
LINE
8
FURNITURE
10
3800.0
20
940.0
30
0.0
11
3800.0
21
1460.0
31
0.0
0
LINE
8
FURNITURE
10
3800.0
20
1460.0
30
0.0
11
3200.0
21
1460.0
31
0.0
0
LINE
8
FURNITURE
10
3200.0
20
1460.0
30
0.0
11
3200.0
21
940.0
31
0.0
0
TEXT
8
LABELS
10
3300.0
20
1200.0
30
0.0
40
120.0
1
P020: NW-CHA-015
0
LINE
8
FURNITURE
10
1000.0
20
2400.0
30
0.0
11
2400.0
21
2400.0
31
0.0
0
LINE
8
FURNITURE
10
2400.0
20
2400.0
30
0.0
11
2400.0
21
3000.0
31
0.0
0
LINE
8
FURNITURE
10
2400.0
20
3000.0
30
0.0
11
1000.0
21
3000.0
31
0.0
0
LINE
8
FURNITURE
10
1000.0
20
3000.0
30
0.0
11
1000.0
21
2400.0
31
0.0
0
TEXT
8
LABELS
10
1500.0
20
2700.0
30
0.0
40
120.0
1
P021: NW-DES-014
0
LINE
8
FURNITURE
10
1400.0
20
2940.0
30
0.0
11
2000.0
21
2940.0
31
0.0
0
LINE
8
FURNITURE
10
2000.0
20
2940.0
30
0.0
11
2000.0
21
3460.0
31
0.0
0
LINE
8
FURNITURE
10
2000.0
20
3460.0
30
0.0
11
1400.0
21
3460.0
31
0.0
0
LINE
8
FURNITURE
10
1400.0
20
3460.0
30
0.0
11
1400.0
21
2940.0
31
0.0
0
TEXT
8
LABELS
10
1500.0
20
3200.0
30
0.0
40
120.0
1
P022: NW-CHA-015
0
LINE
8
FURNITURE
10
2800.0
20
2400.0
30
0.0
11
4200.0
21
2400.0
31
0.0
0
LINE
8
FURNITURE
10
4200.0
20
2400.0
30
0.0
11
4200.0
21
3000.0
31
0.0
0
LINE
8
FURNITURE
10
4200.0
20
3000.0
30
0.0
11
2800.0
21
3000.0
31
0.0
0
LINE
8
FURNITURE
10
2800.0
20
3000.0
30
0.0
11
2800.0
21
2400.0
31
0.0
0
TEXT
8
LABELS
10
3300.0
20
2700.0
30
0.0
40
120.0
1
P023: NW-DES-014
0
LINE
8
FURNITURE
10
3200.0
20
2940.0
30
0.0
11
3800.0
21
2940.0
31
0.0
0
LINE
8
FURNITURE
10
3800.0
20
2940.0
30
0.0
11
3800.0
21
3460.0
31
0.0
0
LINE
8
FURNITURE
10
3800.0
20
3460.0
30
0.0
11
3200.0
21
3460.0
31
0.0
0
LINE
8
FURNITURE
10
3200.0
20
3460.0
30
0.0
11
3200.0
21
2940.0
31
0.0
0
TEXT
8
LABELS
10
3300.0
20
3200.0
30
0.0
40
120.0
1
P024: NW-CHA-015
0
LINE
8
FURNITURE
10
5200.0
20
1550.0
30
0.0
11
6400.0
21
1550.0
31
0.0
0
LINE
8
FURNITURE
10
6400.0
20
1550.0
30
0.0
11
6400.0
21
2450.0
31
0.0
0
LINE
8
FURNITURE
10
6400.0
20
2450.0
30
0.0
11
5200.0
21
2450.0
31
0.0
0
LINE
8
FURNITURE
10
5200.0
20
2450.0
30
0.0
11
5200.0
21
1550.0
31
0.0
0
TEXT
8
LABELS
10
5600.0
20
2000.0
30
0.0
40
120.0
1
P025: NW-COL-005
0
LINE
8
FURNITURE
10
4900.0
20
1140.0
30
0.0
11
5500.0
21
1140.0
31
0.0
0
LINE
8
FURNITURE
10
5500.0
20
1140.0
30
0.0
11
5500.0
21
1660.0
31
0.0
0
LINE
8
FURNITURE
10
5500.0
20
1660.0
30
0.0
11
4900.0
21
1660.0
31
0.0
0
LINE
8
FURNITURE
10
4900.0
20
1660.0
30
0.0
11
4900.0
21
1140.0
31
0.0
0
TEXT
8
LABELS
10
5000.0
20
1400.0
30
0.0
40
120.0
1
P026: NW-CHA-015
0
LINE
8
FURNITURE
10
5500.0
20
1140.0
30
0.0
11
6100.0
21
1140.0
31
0.0
0
LINE
8
FURNITURE
10
6100.0
20
1140.0
30
0.0
11
6100.0
21
1660.0
31
0.0
0
LINE
8
FURNITURE
10
6100.0
20
1660.0
30
0.0
11
5500.0
21
1660.0
31
0.0
0
LINE
8
FURNITURE
10
5500.0
20
1660.0
30
0.0
11
5500.0
21
1140.0
31
0.0
0
TEXT
8
LABELS
10
5600.0
20
1400.0
30
0.0
40
120.0
1
P027: NW-CHA-015
0
LINE
8
FURNITURE
10
6100.0
20
1140.0
30
0.0
11
6700.0
21
1140.0
31
0.0
0
LINE
8
FURNITURE
10
6700.0
20
1140.0
30
0.0
11
6700.0
21
1660.0
31
0.0
0
LINE
8
FURNITURE
10
6700.0
20
1660.0
30
0.0
11
6100.0
21
1660.0
31
0.0
0
LINE
8
FURNITURE
10
6100.0
20
1660.0
30
0.0
11
6100.0
21
1140.0
31
0.0
0
TEXT
8
LABELS
10
6200.0
20
1400.0
30
0.0
40
120.0
1
P028: NW-CHA-015
0
LINE
8
FURNITURE
10
5200.0
20
2750.0
30
0.0
11
6400.0
21
2750.0
31
0.0
0
LINE
8
FURNITURE
10
6400.0
20
2750.0
30
0.0
11
6400.0
21
3650.0
31
0.0
0
LINE
8
FURNITURE
10
6400.0
20
3650.0
30
0.0
11
5200.0
21
3650.0
31
0.0
0
LINE
8
FURNITURE
10
5200.0
20
3650.0
30
0.0
11
5200.0
21
2750.0
31
0.0
0
TEXT
8
LABELS
10
5600.0
20
3200.0
30
0.0
40
120.0
1
P029: NW-COL-005
0
LINE
8
FURNITURE
10
4900.0
20
3540.0
30
0.0
11
5500.0
21
3540.0
31
0.0
0
LINE
8
FURNITURE
10
5500.0
20
3540.0
30
0.0
11
5500.0
21
4060.0
31
0.0
0
LINE
8
FURNITURE
10
5500.0
20
4060.0
30
0.0
11
4900.0
21
4060.0
31
0.0
0
LINE
8
FURNITURE
10
4900.0
20
4060.0
30
0.0
11
4900.0
21
3540.0
31
0.0
0
TEXT
8
LABELS
10
5000.0
20
3800.0
30
0.0
40
120.0
1
P030: NW-CHA-015
0
LINE
8
FURNITURE
10
5500.0
20
3540.0
30
0.0
11
6100.0
21
3540.0
31
0.0
0
LINE
8
FURNITURE
10
6100.0
20
3540.0
30
0.0
11
6100.0
21
4060.0
31
0.0
0
LINE
8
FURNITURE
10
6100.0
20
4060.0
30
0.0
11
5500.0
21
4060.0
31
0.0
0
LINE
8
FURNITURE
10
5500.0
20
4060.0
30
0.0
11
5500.0
21
3540.0
31
0.0
0
TEXT
8
LABELS
10
5600.0
20
3800.0
30
0.0
40
120.0
1
P031: NW-CHA-015
0
LINE
8
FURNITURE
10
6100.0
20
3540.0
30
0.0
11
6700.0
21
3540.0
31
0.0
0
LINE
8
FURNITURE
10
6700.0
20
3540.0
30
0.0
11
6700.0
21
4060.0
31
0.0
0
LINE
8
FURNITURE
10
6700.0
20
4060.0
30
0.0
11
6100.0
21
4060.0
31
0.0
0
LINE
8
FURNITURE
10
6100.0
20
4060.0
30
0.0
11
6100.0
21
3540.0
31
0.0
0
TEXT
8
LABELS
10
6200.0
20
3800.0
30
0.0
40
120.0
1
P032: NW-CHA-015
0
LINE
8
FURNITURE
10
725.0
20
4200.0
30
0.0
11
725.0
21
5800.0
31
0.0
0
LINE
8
FURNITURE
10
725.0
20
5800.0
30
0.0
11
275.00000000000006
21
5800.0
31
0.0
0
LINE
8
FURNITURE
10
275.00000000000006
20
5800.0
30
0.0
11
274.99999999999994
21
4200.0
31
0.0
0
LINE
8
FURNITURE
10
274.99999999999994
20
4200.0
30
0.0
11
725.0
21
4200.0
31
0.0
0
TEXT
8
LABELS
10
300.0
20
5000.0
30
0.0
40
120.0
1
P034: NW-STO-008
0
LINE
8
FURNITURE
10
8225.0
20
1200.0
30
0.0
11
8225.0
21
2800.0
31
0.0
0
LINE
8
FURNITURE
10
8225.0
20
2800.0
30
0.0
11
7775.0
21
2800.0
31
0.0
0
LINE
8
FURNITURE
10
7775.0
20
2800.0
30
0.0
11
7775.0
21
1200.0
31
0.0
0
LINE
8
FURNITURE
10
7775.0
20
1200.0
30
0.0
11
8225.0
21
1200.0
31
0.0
0
TEXT
8
LABELS
10
7800.0
20
2000.0
30
0.0
40
120.0
1
P035: NW-STO-008
0
LINE
8
FURNITURE
10
8225.0
20
2400.0
30
0.0
11
8225.0
21
4000.0
31
0.0
0
LINE
8
FURNITURE
10
8225.0
20
4000.0
30
0.0
11
7775.0
21
4000.0
31
0.0
0
LINE
8
FURNITURE
10
7775.0
20
4000.0
30
0.0
11
7775.0
21
2400.0
31
0.0
0
LINE
8
FURNITURE
10
7775.0
20
2400.0
30
0.0
11
8225.0
21
2400.0
31
0.0
0
TEXT
8
LABELS
10
7800.0
20
3200.0
30
0.0
40
120.0
1
P036: NW-STO-008
0
LINE
8
FURNITURE
10
1050.0
20
6710.0
30
0.0
11
1350.0
21
6710.0
31
0.0
0
LINE
8
FURNITURE
10
1350.0
20
6710.0
30
0.0
11
1350.0
21
6890.0
31
0.0
0
LINE
8
FURNITURE
10
1350.0
20
6890.0
30
0.0
11
1050.0
21
6890.0
31
0.0
0
LINE
8
FURNITURE
10
1050.0
20
6890.0
30
0.0
11
1050.0
21
6710.0
31
0.0
0
TEXT
8
LABELS
10
1000.0
20
6800.0
30
0.0
40
120.0
1
P037: NW-ACC-001
0
LINE
8
FURNITURE
10
2850.0
20
6710.0
30
0.0
11
3150.0
21
6710.0
31
0.0
0
LINE
8
FURNITURE
10
3150.0
20
6710.0
30
0.0
11
3150.0
21
6890.0
31
0.0
0
LINE
8
FURNITURE
10
3150.0
20
6890.0
30
0.0
11
2850.0
21
6890.0
31
0.0
0
LINE
8
FURNITURE
10
2850.0
20
6890.0
30
0.0
11
2850.0
21
6710.0
31
0.0
0
TEXT
8
LABELS
10
2800.0
20
6800.0
30
0.0
40
120.0
1
P038: NW-ACC-001
0
LINE
8
FURNITURE
10
4650.0
20
6710.0
30
0.0
11
4950.0
21
6710.0
31
0.0
0
LINE
8
FURNITURE
10
4950.0
20
6710.0
30
0.0
11
4950.0
21
6890.0
31
0.0
0
LINE
8
FURNITURE
10
4950.0
20
6890.0
30
0.0
11
4650.0
21
6890.0
31
0.0
0
LINE
8
FURNITURE
10
4650.0
20
6890.0
30
0.0
11
4650.0
21
6710.0
31
0.0
0
TEXT
8
LABELS
10
4600.0
20
6800.0
30
0.0
40
120.0
1
P039: NW-ACC-001
0
LINE
8
FURNITURE
10
6450.0
20
6710.0
30
0.0
11
6750.0
21
6710.0
31
0.0
0
LINE
8
FURNITURE
10
6750.0
20
6710.0
30
0.0
11
6750.0
21
6890.0
31
0.0
0
LINE
8
FURNITURE
10
6750.0
20
6890.0
30
0.0
11
6450.0
21
6890.0
31
0.0
0
LINE
8
FURNITURE
10
6450.0
20
6890.0
30
0.0
11
6450.0
21
6710.0
31
0.0
0
TEXT
8
LABELS
10
6400.0
20
6800.0
30
0.0
40
120.0
1
P040: NW-ACC-001
0
ENDSEC
0
EOF
