0
SECTION
2
HEADER
9
$ACADVER
1
AC1009
0
ENDSEC
0
SECTION
2
TABLES
0
TABLE
2
LAYER
70
5
0
LAYER
2
ROOM_BOUNDARY
70
0
62
4
6
CONTINUOUS
0
LAYER
2
DOORS_SWING
70
0
62
2
6
CONTINUOUS
0
LAYER
2
EGRESS
70
0
62
6
6
DASHED
0
LAYER
2
FURNITURE
70
0
62
3
6
CONTINUOUS
0
LAYER
2
LABELS
70
0
62
7
6
CONTINUOUS
0
ENDTAB
0
ENDSEC
0
SECTION
2
ENTITIES
0
LINE
8
ROOM_BOUNDARY
10
0.0
20
0.0
30
0.0
11
9000.0
21
0.0
31
0.0
0
LINE
8
ROOM_BOUNDARY
10
9000.0
20
0.0
30
0.0
11
9000.0
21
6200.0
31
0.0
0
LINE
8
ROOM_BOUNDARY
10
9000.0
20
6200.0
30
0.0
11
0.0
21
6200.0
31
0.0
0
LINE
8
ROOM_BOUNDARY
10
0.0
20
6200.0
30
0.0
11
0.0
21
0.0
31
0.0
0
LINE
8
EGRESS
10
1250.0
20
0.0
30
0.0
11
8200.0
21
5400.0
31
0.0
0
LINE
8
FURNITURE
10
4600.0
20
1150.0
30
0.0
11
7000.0
21
1150.0
31
0.0
0
LINE
8
FURNITURE
10
7000.0
20
1150.0
30
0.0
11
7000.0
21
2050.0
31
0.0
0
LINE
8
FURNITURE
10
7000.0
20
2050.0
30
0.0
11
4600.0
21
2050.0
31
0.0
0
LINE
8
FURNITURE
10
4600.0
20
2050.0
30
0.0
11
4600.0
21
1150.0
31
0.0
0
TEXT
8
LABELS
10
5600.0
20
1600.0
30
0.0
40
120.0
1
P001: NW-COL-008
0
LINE
8
FURNITURE
10
4620.0
20
2200.0
30
0.0
11
5180.0
21
2200.0
31
0.0
0
LINE
8
FURNITURE
10
5180.0
20
2200.0
30
0.0
11
5180.0
21
2800.0
31
0.0
0
LINE
8
FURNITURE
10
5180.0
20
2800.0
30
0.0
11
4620.0
21
2800.0
31
0.0
0
LINE
8
FURNITURE
10
4620.0
20
2800.0
30
0.0
11
4620.0
21
2200.0
31
0.0
0
TEXT
8
LABELS
10
4700.0
20
2500.0
30
0.0
40
120.0
1
P002: NW-CHA-010
0
LINE
8
FURNITURE
10
5220.0
20
2200.0
30
0.0
11
5780.0
21
2200.0
31
0.0
0
LINE
8
FURNITURE
10
5780.0
20
2200.0
30
0.0
11
5780.0
21
2800.0
31
0.0
0
LINE
8
FURNITURE
10
5780.0
20
2800.0
30
0.0
11
5220.0
21
2800.0
31
0.0
0
LINE
8
FURNITURE
10
5220.0
20
2800.0
30
0.0
11
5220.0
21
2200.0
31
0.0
0
TEXT
8
LABELS
10
5300.0
20
2500.0
30
0.0
40
120.0
1
P003: NW-CHA-010
0
LINE
8
FURNITURE
10
5820.0
20
2200.0
30
0.0
11
6380.0
21
2200.0
31
0.0
0
LINE
8
FURNITURE
10
6380.0
20
2200.0
30
0.0
11
6380.0
21
2800.0
31
0.0
0
LINE
8
FURNITURE
10
6380.0
20
2800.0
30
0.0
11
5820.0
21
2800.0
31
0.0
0
LINE
8
FURNITURE
10
5820.0
20
2800.0
30
0.0
11
5820.0
21
2200.0
31
0.0
0
TEXT
8
LABELS
10
5900.0
20
2500.0
30
0.0
40
120.0
1
P004: NW-CHA-010
0
LINE
8
FURNITURE
10
6420.0
20
2200.0
30
0.0
11
6980.0
21
2200.0
31
0.0
0
LINE
8
FURNITURE
10
6980.0
20
2200.0
30
0.0
11
6980.0
21
2800.0
31
0.0
0
LINE
8
FURNITURE
10
6980.0
20
2800.0
30
0.0
11
6420.0
21
2800.0
31
0.0
0
LINE
8
FURNITURE
10
6420.0
20
2800.0
30
0.0
11
6420.0
21
2200.0
31
0.0
0
TEXT
8
LABELS
10
6500.0
20
2500.0
30
0.0
40
120.0
1
P005: NW-CHA-010
0
LINE
8
FURNITURE
10
4620.0
20
400.0
30
0.0
11
5180.0
21
400.0
31
0.0
0
LINE
8
FURNITURE
10
5180.0
20
400.0
30
0.0
11
5180.0
21
1000.0
31
0.0
0
LINE
8
FURNITURE
10
5180.0
20
1000.0
30
0.0
11
4620.0
21
1000.0
31
0.0
0
LINE
8
FURNITURE
10
4620.0
20
1000.0
30
0.0
11
4620.0
21
400.0
31
0.0
0
TEXT
8
LABELS
10
4700.0
20
700.0
30
0.0
40
120.0
1
P006: NW-CHA-010
0
LINE
8
FURNITURE
10
5220.0
20
400.0
30
0.0
11
5780.0
21
400.0
31
0.0
0
LINE
8
FURNITURE
10
5780.0
20
400.0
30
0.0
11
5780.0
21
1000.0
31
0.0
0
LINE
8
FURNITURE
10
5780.0
20
1000.0
30
0.0
11
5220.0
21
1000.0
31
0.0
0
LINE
8
FURNITURE
10
5220.0
20
1000.0
30
0.0
11
5220.0
21
400.0
31
0.0
0
TEXT
8
LABELS
10
5300.0
20
700.0
30
0.0
40
120.0
1
P007: NW-CHA-010
0
LINE
8
FURNITURE
10
5820.0
20
400.0
30
0.0
11
6380.0
21
400.0
31
0.0
0
LINE
8
FURNITURE
10
6380.0
20
400.0
30
0.0
11
6380.0
21
1000.0
31
0.0
0
LINE
8
FURNITURE
10
6380.0
20
1000.0
30
0.0
11
5820.0
21
1000.0
31
0.0
0
LINE
8
FURNITURE
10
5820.0
20
1000.0
30
0.0
11
5820.0
21
400.0
31
0.0
0
TEXT
8
LABELS
10
5900.0
20
700.0
30
0.0
40
120.0
1
P008: NW-CHA-010
0
LINE
8
FURNITURE
10
6420.0
20
400.0
30
0.0
11
6980.0
21
400.0
31
0.0
0
LINE
8
FURNITURE
10
6980.0
20
400.0
30
0.0
11
6980.0
21
1000.0
31
0.0
0
LINE
8
FURNITURE
10
6980.0
20
1000.0
30
0.0
11
6420.0
21
1000.0
31
0.0
0
LINE
8
FURNITURE
10
6420.0
20
1000.0
30
0.0
11
6420.0
21
400.0
31
0.0
0
TEXT
8
LABELS
10
6500.0
20
700.0
30
0.0
40
120.0
1
P009: NW-CHA-010
0
LINE
8
FURNITURE
10
1000.0
20
4450.0
30
0.0
11
3400.0
21
4450.0
31
0.0
0
LINE
8
FURNITURE
10
3400.0
20
4450.0
30
0.0
11
3400.0
21
5350.0
31
0.0
0
LINE
8
FURNITURE
10
3400.0
20
5350.0
30
0.0
11
1000.0
21
5350.0
31
0.0
0
LINE
8
FURNITURE
10
1000.0
20
5350.0
30
0.0
11
1000.0
21
4450.0
31
0.0
0
TEXT
8
LABELS
10
2000.0
20
4900.0
30
0.0
40
120.0
1
P010: NW-COL-008
0
LINE
8
FURNITURE
10
1020.0
20
5500.0
30
0.0
11
1580.0
21
5500.0
31
0.0
0
LINE
8
FURNITURE
10
1580.0
20
5500.0
30
0.0
11
1580.0
21
6100.0
31
0.0
0
LINE
8
FURNITURE
10
1580.0
20
6100.0
30
0.0
11
1020.0
21
6100.0
31
0.0
0
LINE
8
FURNITURE
10
1020.0
20
6100.0
30
0.0
11
1020.0
21
5500.0
31
0.0
0
TEXT
8
LABELS
10
1100.0
20
5800.0
30
0.0
40
120.0
1
P011: NW-CHA-010
0
LINE
8
FURNITURE
10
1620.0
20
5500.0
30
0.0
11
2180.0
21
5500.0
31
0.0
0
LINE
8
FURNITURE
10
2180.0
20
5500.0
30
0.0
11
2180.0
21
6100.0
31
0.0
0
LINE
8
FURNITURE
10
2180.0
20
6100.0
30
0.0
11
1620.0
21
6100.0
31
0.0
0
LINE
8
FURNITURE
10
1620.0
20
6100.0
30
0.0
11
1620.0
21
5500.0
31
0.0
0
TEXT
8
LABELS
10
1700.0
20
5800.0
30
0.0
40
120.0
1
P012: NW-CHA-010
0
LINE
8
FURNITURE
10
2220.0
20
5500.0
30
0.0
11
2780.0
21
5500.0
31
0.0
0
LINE
8
FURNITURE
10
2780.0
20
5500.0
30
0.0
11
2780.0
21
6100.0
31
0.0
0
LINE
8
FURNITURE
10
2780.0
20
6100.0
30
0.0
11
2220.0
21
6100.0
31
0.0
0
LINE
8
FURNITURE
10
2220.0
20
6100.0
30
0.0
11
2220.0
21
5500.0
31
0.0
0
TEXT
8
LABELS
10
2300.0
20
5800.0
30
0.0
40
120.0
1
P013: NW-CHA-010
0
LINE
8
FURNITURE
10
2820.0
20
5500.0
30
0.0
11
3380.0
21
5500.0
31
0.0
0
LINE
8
FURNITURE
10
3380.0
20
5500.0
30
0.0
11
3380.0
21
6100.0
31
0.0
0
LINE
8
FURNITURE
10
3380.0
20
6100.0
30
0.0
11
2820.0
21
6100.0
31
0.0
0
LINE
8
FURNITURE
10
2820.0
20
6100.0
30
0.0
11
2820.0
21
5500.0
31
0.0
0
TEXT
8
LABELS
10
2900.0
20
5800.0
30
0.0
40
120.0
1
P014: NW-CHA-010
0
LINE
8
FURNITURE
10
1020.0
20
3700.0
30
0.0
11
1580.0
21
3700.0
31
0.0
0
LINE
8
FURNITURE
10
1580.0
20
3700.0
30
0.0
11
1580.0
21
4300.0
31
0.0
0
LINE
8
FURNITURE
10
1580.0
20
4300.0
30
0.0
11
1020.0
21
4300.0
31
0.0
0
LINE
8
FURNITURE
10
1020.0
20
4300.0
30
0.0
11
1020.0
21
3700.0
31
0.0
0
TEXT
8
LABELS
10
1100.0
20
4000.0
30
0.0
40
120.0
1
P015: NW-CHA-010
0
LINE
8
FURNITURE
10
1620.0
20
3700.0
30
0.0
11
2180.0
21
3700.0
31
0.0
0
LINE
8
FURNITURE
10
2180.0
20
3700.0
30
0.0
11
2180.0
21
4300.0
31
0.0
0
LINE
8
FURNITURE
10
2180.0
20
4300.0
30
0.0
11
1620.0
21
4300.0
31
0.0
0
LINE
8
FURNITURE
10
1620.0
20
4300.0
30
0.0
11
1620.0
21
3700.0
31
0.0
0
TEXT
8
LABELS
10
1700.0
20
4000.0
30
0.0
40
120.0
1
P016: NW-CHA-010
0
LINE
8
FURNITURE
10
2220.0
20
3700.0
30
0.0
11
2780.0
21
3700.0
31
0.0
0
LINE
8
FURNITURE
10
2780.0
20
3700.0
30
0.0
11
2780.0
21
4300.0
31
0.0
0
LINE
8
FURNITURE
10
2780.0
20
4300.0
30
0.0
11
2220.0
21
4300.0
31
0.0
0
LINE
8
FURNITURE
10
2220.0
20
4300.0
30
0.0
11
2220.0
21
3700.0
31
0.0
0
TEXT
8
LABELS
10
2300.0
20
4000.0
30
0.0
40
120.0
1
P017: NW-CHA-010
0
LINE
8
FURNITURE
10
2820.0
20
3700.0
30
0.0
11
3380.0
21
3700.0
31
0.0
0
LINE
8
FURNITURE
10
3380.0
20
3700.0
30
0.0
11
3380.0
21
4300.0
31
0.0
0
LINE
8
FURNITURE
10
3380.0
20
4300.0
30
0.0
11
2820.0
21
4300.0
31
0.0
0
LINE
8
FURNITURE
10
2820.0
20
4300.0
30
0.0
11
2820.0
21
3700.0
31
0.0
0
TEXT
8
LABELS
10
2900.0
20
4000.0
30
0.0
40
120.0
1
P018: NW-CHA-010
0
LINE
8
FURNITURE
10
1000.0
20
125.0
30
0.0
11
1800.0
21
125.0
31
0.0
0
LINE
8
FURNITURE
10
1800.0
20
125.0
30
0.0
11
1800.0
21
575.0
31
0.0
0
LINE
8
FURNITURE
10
1800.0
20
575.0
30
0.0
11
1000.0
21
575.0
31
0.0
0
LINE
8
FURNITURE
10
1000.0
20
575.0
30
0.0
11
1000.0
21
125.0
31
0.0
0
TEXT
8
LABELS
10
1200.0
20
350.0
30
0.0
40
120.0
1
P019: NW-STO-005
0
LINE
8
FURNITURE
10
3100.0
20
125.0
30
0.0
11
3900.0
21
125.0
31
0.0
0
LINE
8
FURNITURE
10
3900.0
20
125.0
30
0.0
11
3900.0
21
575.0
31
0.0
0
LINE
8
FURNITURE
10
3900.0
20
575.0
30
0.0
11
3100.0
21
575.0
31
0.0
0
LINE
8
FURNITURE
10
3100.0
20
575.0
30
0.0
11
3100.0
21
125.0
31
0.0
0
TEXT
8
LABELS
10
3300.0
20
350.0
30
0.0
40
120.0
1
P020: NW-STO-005
0
LINE
8
FURNITURE
10
4400.0
20
5625.0
30
0.0
11
5200.0
21
5625.0
31
0.0
0
LINE
8
FURNITURE
10
5200.0
20
5625.0
30
0.0
11
5200.0
21
6075.0
31
0.0
0
LINE
8
FURNITURE
10
5200.0
20
6075.0
30
0.0
11
4400.0
21
6075.0
31
0.0
0
LINE
8
FURNITURE
10
4400.0
20
6075.0
30
0.0
11
4400.0
21
5625.0
31
0.0
0
TEXT
8
LABELS
10
4600.0
20
5850.0
30
0.0
40
120.0
1
P021: NW-STO-005
0
LINE
8
FURNITURE
10
5800.0
20
5625.0
30
0.0
11
6600.0
21
5625.0
31
0.0
0
LINE
8
FURNITURE
10
6600.0
20
5625.0
30
0.0
11
6600.0
21
6075.0
31
0.0
0
LINE
8
FURNITURE
10
6600.0
20
6075.0
30
0.0
11
5800.0
21
6075.0
31
0.0
0
LINE
8
FURNITURE
10
5800.0
20
6075.0
30
0.0
11
5800.0
21
5625.0
31
0.0
0
TEXT
8
LABELS
10
6000.0
20
5850.0
30
0.0
40
120.0
1
P022: NW-STO-005
0
LINE
8
FURNITURE
10
425.0
20
3275.0
30
0.0
11
425.0
21
3725.0
31
0.0
0
LINE
8
FURNITURE
10
425.0
20
3725.0
30
0.0
11
175.0
21
3725.0
31
0.0
0
LINE
8
FURNITURE
10
175.0
20
3725.0
30
0.0
11
175.0
21
3275.0
31
0.0
0
LINE
8
FURNITURE
10
175.0
20
3275.0
30
0.0
11
425.0
21
3275.0
31
0.0
0
TEXT
8
LABELS
10
100.0
20
3500.0
30
0.0
40
120.0
1
P023: NW-ACC-006
0
LINE
8
FURNITURE
10
7975.0
20
275.0
30
0.0
11
8425.0
21
275.0
31
0.0
0
LINE
8
FURNITURE
10
8425.0
20
275.0
30
0.0
11
8425.0
21
525.0
31
0.0
0
LINE
8
FURNITURE
10
8425.0
20
525.0
30
0.0
11
7975.0
21
525.0
31
0.0
0
LINE
8
FURNITURE
10
7975.0
20
525.0
30
0.0
11
7975.0
21
275.0
31
0.0
0
TEXT
8
LABELS
10
8000.0
20
400.0
30
0.0
40
120.0
1
P024: NW-ACC-006
0
LINE
8
FURNITURE
10
275.0
20
5475.0
30
0.0
11
725.0
21
5475.0
31
0.0
0
LINE
8
FURNITURE
10
725.0
20
5475.0
30
0.0
11
725.0
21
5725.0
31
0.0
0
LINE
8
FURNITURE
10
725.0
20
5725.0
30
0.0
11
275.0
21
5725.0
31
0.0
0
LINE
8
FURNITURE
10
275.0
20
5725.0
30
0.0
11
275.0
21
5475.0
31
0.0
0
TEXT
8
LABELS
10
300.0
20
5600.0
30
0.0
40
120.0
1
P025: NW-ACC-006
0
ENDSEC
0
EOF
