<svg xmlns="http://www.w3.org/2000/svg" viewBox="-600 -600 10200 7400" width="100%" height="100%" style="background:#0f172a; font-family:system-ui, -apple-system, sans-serif;">
  <defs>
    <pattern id="grid" width="500" height="500" patternUnits="userSpaceOnUse">
      <path d="M 500 0 L 0 0 0 500" fill="none" stroke="#1e293b" stroke-width="15"/>
    </pattern>
    <linearGradient id="egressGrad" x1="0%" y1="0%" x2="100%" y2="100%">
      <stop offset="0%" stop-color="#10b981" stop-opacity="0.25"/>
      <stop offset="100%" stop-color="#059669" stop-opacity="0.15"/>
    </linearGradient>
  </defs>
  <rect x="-600" y="-600" width="10200" height="7400" fill="url(#grid)"/>
  <!-- Egress Path -->
  <polygon points="-248.4,4459.3 7951.6,309.3 8448.4,1290.7 248.4,5440.7" fill="url(#egressGrad)" stroke="#10b981" stroke-width="20" stroke-dasharray="100,50"/>
  <line x1="0.0" y1="4950.0" x2="8200.0" y2="800.0" stroke="#34d399" stroke-width="25" stroke-dasharray="80,40"/>
  <!-- Room Boundary -->
  <polygon points="0.0,6200.0 9000.0,6200.0 9000.0,0.0 0.0,0.0" fill="#1e293b" fill-opacity="0.5" stroke="#94a3b8" stroke-width="80" stroke-linejoin="round"/>
  <line x1="9000.0" y1="5300.0" x2="9000.0" y2="1100.0" stroke="#38bdf8" stroke-width="120" stroke-linecap="square"/>
  <line x1="0.0" y1="5500.0" x2="0.0" y2="4400.0" stroke="#f59e0b" stroke-width="140" stroke-linecap="round"/>
  <!-- Furniture Placements -->
  <g id="P001">
    <polygon points="4600.0,5050.0 7000.0,5050.0 7000.0,4150.0 4600.0,4150.0" fill="#10b981" fill-opacity="0.8" stroke="#047857" stroke-width="25" rx="20"/>
    <text x="5800.0" y="4646.7" fill="#ffffff" font-size="140" font-weight="bold" text-anchor="middle">P001</text>
  </g>
  <g id="P002">
    <polygon points="4620.0,4000.0 5180.0,4000.0 5180.0,3400.0 4620.0,3400.0" fill="#f97316" fill-opacity="0.8" stroke="#c2410c" stroke-width="25" rx="20"/>
    <text x="4900.0" y="3733.3" fill="#ffffff" font-size="100" font-weight="bold" text-anchor="middle">P002</text>
  </g>
  <g id="P003">
    <polygon points="5220.0,4000.0 5780.0,4000.0 5780.0,3400.0 5220.0,3400.0" fill="#f97316" fill-opacity="0.8" stroke="#c2410c" stroke-width="25" rx="20"/>
    <text x="5500.0" y="3733.3" fill="#ffffff" font-size="100" font-weight="bold" text-anchor="middle">P003</text>
  </g>
  <g id="P004">
    <polygon points="5820.0,4000.0 6380.0,4000.0 6380.0,3400.0 5820.0,3400.0" fill="#f97316" fill-opacity="0.8" stroke="#c2410c" stroke-width="25" rx="20"/>
    <text x="6100.0" y="3733.3" fill="#ffffff" font-size="100" font-weight="bold" text-anchor="middle">P004</text>
  </g>
  <g id="P005">
    <polygon points="6420.0,4000.0 6980.0,4000.0 6980.0,3400.0 6420.0,3400.0" fill="#f97316" fill-opacity="0.8" stroke="#c2410c" stroke-width="25" rx="20"/>
    <text x="6700.0" y="3733.3" fill="#ffffff" font-size="100" font-weight="bold" text-anchor="middle">P005</text>
  </g>
  <g id="P006">
    <polygon points="4620.0,5800.0 5180.0,5800.0 5180.0,5200.0 4620.0,5200.0" fill="#f97316" fill-opacity="0.8" stroke="#c2410c" stroke-width="25" rx="20"/>
    <text x="4900.0" y="5533.3" fill="#ffffff" font-size="100" font-weight="bold" text-anchor="middle">P006</text>
  </g>
  <g id="P007">
    <polygon points="5220.0,5800.0 5780.0,5800.0 5780.0,5200.0 5220.0,5200.0" fill="#f97316" fill-opacity="0.8" stroke="#c2410c" stroke-width="25" rx="20"/>
    <text x="5500.0" y="5533.3" fill="#ffffff" font-size="100" font-weight="bold" text-anchor="middle">P007</text>
  </g>
  <g id="P008">
    <polygon points="5820.0,5800.0 6380.0,5800.0 6380.0,5200.0 5820.0,5200.0" fill="#f97316" fill-opacity="0.8" stroke="#c2410c" stroke-width="25" rx="20"/>
    <text x="6100.0" y="5533.3" fill="#ffffff" font-size="100" font-weight="bold" text-anchor="middle">P008</text>
  </g>
  <g id="P009">
    <polygon points="6420.0,5800.0 6980.0,5800.0 6980.0,5200.0 6420.0,5200.0" fill="#f97316" fill-opacity="0.8" stroke="#c2410c" stroke-width="25" rx="20"/>
    <text x="6700.0" y="5533.3" fill="#ffffff" font-size="100" font-weight="bold" text-anchor="middle">P009</text>
  </g>
  <g id="P010">
    <polygon points="1000.0,1750.0 3400.0,1750.0 3400.0,850.0 1000.0,850.0" fill="#10b981" fill-opacity="0.8" stroke="#047857" stroke-width="25" rx="20"/>
    <text x="2200.0" y="1346.7" fill="#ffffff" font-size="140" font-weight="bold" text-anchor="middle">P010</text>
  </g>
  <g id="P011">
    <polygon points="1020.0,700.0 1580.0,700.0 1580.0,100.0 1020.0,100.0" fill="#f97316" fill-opacity="0.8" stroke="#c2410c" stroke-width="25" rx="20"/>
    <text x="1300.0" y="433.3" fill="#ffffff" font-size="100" font-weight="bold" text-anchor="middle">P011</text>
  </g>
  <g id="P012">
    <polygon points="1620.0,700.0 2180.0,700.0 2180.0,100.0 1620.0,100.0" fill="#f97316" fill-opacity="0.8" stroke="#c2410c" stroke-width="25" rx="20"/>
    <text x="1900.0" y="433.3" fill="#ffffff" font-size="100" font-weight="bold" text-anchor="middle">P012</text>
  </g>
  <g id="P013">
    <polygon points="2220.0,700.0 2780.0,700.0 2780.0,100.0 2220.0,100.0" fill="#f97316" fill-opacity="0.8" stroke="#c2410c" stroke-width="25" rx="20"/>
    <text x="2500.0" y="433.3" fill="#ffffff" font-size="100" font-weight="bold" text-anchor="middle">P013</text>
  </g>
  <g id="P014">
    <polygon points="2820.0,700.0 3380.0,700.0 3380.0,100.0 2820.0,100.0" fill="#f97316" fill-opacity="0.8" stroke="#c2410c" stroke-width="25" rx="20"/>
    <text x="3100.0" y="433.3" fill="#ffffff" font-size="100" font-weight="bold" text-anchor="middle">P014</text>
  </g>
  <g id="P015">
    <polygon points="1020.0,2500.0 1580.0,2500.0 1580.0,1900.0 1020.0,1900.0" fill="#f97316" fill-opacity="0.8" stroke="#c2410c" stroke-width="25" rx="20"/>
    <text x="1300.0" y="2233.3" fill="#ffffff" font-size="100" font-weight="bold" text-anchor="middle">P015</text>
  </g>
  <g id="P016">
    <polygon points="1620.0,2500.0 2180.0,2500.0 2180.0,1900.0 1620.0,1900.0" fill="#f97316" fill-opacity="0.8" stroke="#c2410c" stroke-width="25" rx="20"/>
    <text x="1900.0" y="2233.3" fill="#ffffff" font-size="100" font-weight="bold" text-anchor="middle">P016</text>
  </g>
  <g id="P017">
    <polygon points="2220.0,2500.0 2780.0,2500.0 2780.0,1900.0 2220.0,1900.0" fill="#f97316" fill-opacity="0.8" stroke="#c2410c" stroke-width="25" rx="20"/>
    <text x="2500.0" y="2233.3" fill="#ffffff" font-size="100" font-weight="bold" text-anchor="middle">P017</text>
  </g>
  <g id="P018">
    <polygon points="2820.0,2500.0 3380.0,2500.0 3380.0,1900.0 2820.0,1900.0" fill="#f97316" fill-opacity="0.8" stroke="#c2410c" stroke-width="25" rx="20"/>
    <text x="3100.0" y="2233.3" fill="#ffffff" font-size="100" font-weight="bold" text-anchor="middle">P018</text>
  </g>
  <g id="P019">
    <polygon points="1000.0,6075.0 1800.0,6075.0 1800.0,5625.0 1000.0,5625.0" fill="#8b5cf6" fill-opacity="0.8" stroke="#6d28d9" stroke-width="25" rx="20"/>
    <text x="1400.0" y="5883.3" fill="#ffffff" font-size="100" font-weight="bold" text-anchor="middle">P019</text>
  </g>
  <g id="P020">
    <polygon points="3100.0,6075.0 3900.0,6075.0 3900.0,5625.0 3100.0,5625.0" fill="#8b5cf6" fill-opacity="0.8" stroke="#6d28d9" stroke-width="25" rx="20"/>
    <text x="3500.0" y="5883.3" fill="#ffffff" font-size="100" font-weight="bold" text-anchor="middle">P020</text>
  </g>
  <g id="P021">
    <polygon points="4400.0,575.0 5200.0,575.0 5200.0,125.0 4400.0,125.0" fill="#8b5cf6" fill-opacity="0.8" stroke="#6d28d9" stroke-width="25" rx="20"/>
    <text x="4800.0" y="383.3" fill="#ffffff" font-size="100" font-weight="bold" text-anchor="middle">P021</text>
  </g>
  <g id="P022">
    <polygon points="5800.0,575.0 6600.0,575.0 6600.0,125.0 5800.0,125.0" fill="#8b5cf6" fill-opacity="0.8" stroke="#6d28d9" stroke-width="25" rx="20"/>
    <text x="6200.0" y="383.3" fill="#ffffff" font-size="100" font-weight="bold" text-anchor="middle">P022</text>
  </g>
  <g id="P023">
    <polygon points="425.0,2925.0 425.0,2475.0 175.0,2475.0 175.0,2925.0" fill="#ec4899" fill-opacity="0.8" stroke="#be185d" stroke-width="25" rx="20"/>
    <text x="300.0" y="2733.3" fill="#ffffff" font-size="100" font-weight="bold" text-anchor="middle">P023</text>
  </g>
  <g id="P024">
    <polygon points="7975.0,5925.0 8425.0,5925.0 8425.0,5675.0 7975.0,5675.0" fill="#ec4899" fill-opacity="0.8" stroke="#be185d" stroke-width="25" rx="20"/>
    <text x="8200.0" y="5833.3" fill="#ffffff" font-size="100" font-weight="bold" text-anchor="middle">P024</text>
  </g>
  <g id="P025">
    <polygon points="275.0,725.0 725.0,725.0 725.0,475.0 275.0,475.0" fill="#ec4899" fill-opacity="0.8" stroke="#be185d" stroke-width="25" rx="20"/>
    <text x="500.0" y="633.3" fill="#ffffff" font-size="100" font-weight="bold" text-anchor="middle">P025</text>
  </g>
  <!-- Room Title -->
  <text x="100" y="250" fill="#f8fafc" font-size="280" font-weight="bold">Cedar Client Workshop (ROOM-02)</text>
  <text x="100" y="550" fill="#94a3b8" font-size="160">Status: VALID | Placements: 25 | Violations: 0</text>
</svg>
